# Tiled2Unity generated file. Do not modify by hand.
# Wavefront file for 'grave22_mesh_0003.obj'

# Vertices (Count = 172)
v -6 -6 0
v -8 -6 0
v -8 -4 0
v -6 -4 0
v -8 -6 0
v -10 -6 0
v -10 -4 0
v -8 -4 0
v -10 -6 0
v -12 -6 0
v -12 -4 0
v -10 -4 0
v -12 -6 0
v -14 -6 0
v -14 -4 0
v -12 -4 0
v -14 -6 0
v -16 -6 0
v -16 -4 0
v -14 -4 0
v -16 -6 0
v -18 -6 0
v -18 -4 0
v -16 -4 0
v -18 -6 0
v -20 -6 0
v -20 -4 0
v -18 -4 0
v -20 -6 0
v -22 -6 0
v -22 -4 0
v -20 -4 0
v -22 -6 0
v -24 -6 0
v -24 -4 0
v -22 -4 0
v -24 -6 0
v -26 -6 0
v -26 -4 0
v -24 -4 0
v -26 -6 0
v -28 -6 0
v -28 -4 0
v -26 -4 0
v -26 -8 0
v -28 -8 0
v -28 -6 0
v -26 -6 0
v -26 -10 0
v -28 -10 0
v -28 -8 0
v -26 -8 0
v -26 -12 0
v -28 -12 0
v -28 -10 0
v -26 -10 0
v -26 -14 0
v -28 -14 0
v -28 -12 0
v -26 -12 0
v -26 -16 0
v -28 -16 0
v -28 -14 0
v -26 -14 0
v -26 -18 0
v -28 -18 0
v -28 -16 0
v -26 -16 0
v -8 -20 0
v -10 -20 0
v -10 -18 0
v -8 -18 0
v -10 -20 0
v -12 -20 0
v -12 -18 0
v -10 -18 0
v -12 -20 0
v -14 -20 0
v -14 -18 0
v -12 -18 0
v -14 -20 0
v -16 -20 0
v -16 -18 0
v -14 -18 0
v -16 -20 0
v -18 -20 0
v -18 -18 0
v -16 -18 0
v -18 -20 0
v -20 -20 0
v -20 -18 0
v -18 -18 0
v -20 -20 0
v -22 -20 0
v -22 -18 0
v -20 -18 0
v -22 -20 0
v -24 -20 0
v -24 -18 0
v -22 -18 0
v -24 -20 0
v -26 -20 0
v -26 -18 0
v -24 -18 0
v -26 -20 0
v -28 -20 0
v -28 -18 0
v -26 -18 0
v -8 -22 0
v -10 -22 0
v -10 -20 0
v -8 -20 0
v -10 -22 0
v -12 -22 0
v -12 -20 0
v -10 -20 0
v -12 -22 0
v -14 -22 0
v -14 -20 0
v -12 -20 0
v -14 -22 0
v -16 -22 0
v -16 -20 0
v -14 -20 0
v -16 -22 0
v -18 -22 0
v -18 -20 0
v -16 -20 0
v -18 -22 0
v -20 -22 0
v -20 -20 0
v -18 -20 0
v -20 -22 0
v -22 -22 0
v -22 -20 0
v -20 -20 0
v -22 -22 0
v -24 -22 0
v -24 -20 0
v -22 -20 0
v -24 -22 0
v -26 -22 0
v -26 -20 0
v -24 -20 0
v -26 -22 0
v -28 -22 0
v -28 -20 0
v -26 -20 0
v -28 -22 0
v -30 -22 0
v -30 -20 0
v -28 -20 0
v -30 -22 0
v -32 -22 0
v -32 -20 0
v -30 -20 0
v -32 -22 0
v -34 -22 0
v -34 -20 0
v -32 -20 0
v -34 -22 0
v -36 -22 0
v -36 -20 0
v -34 -20 0
v -36 -22 0
v -38 -22 0
v -38 -20 0
v -36 -20 0
v -38 -22 0
v -40 -22 0
v -40 -20 0
v -38 -20 0

# Texture cooridinates (Count = 14)
vt 0 0.90625
vt 0.03125 0.90625
vt 0.03125 0.9375
vt 0 0.9375
vt 0.0625 0.90625
vt 0.0625 0.9375
vt 0.09375 0.90625
vt 0.09375 0.9375
vt 0.0625 0.875
vt 0.09375 0.875
vt 0.03125 0.84375
vt 0.0625 0.84375
vt 0.03125 0.875
vt 0.09375 0.84375

# Normal
vn 0 0 -1

# Mesh description
g grave22_mesh_0003

# Faces
f 1/1/1 2/2/1 3/3/1 4/4/1
f 5/2/1 6/5/1 7/6/1 8/3/1
f 9/2/1 10/5/1 11/6/1 12/3/1
f 13/2/1 14/5/1 15/6/1 16/3/1
f 17/2/1 18/5/1 19/6/1 20/3/1
f 21/2/1 22/5/1 23/6/1 24/3/1
f 25/2/1 26/5/1 27/6/1 28/3/1
f 29/2/1 30/5/1 31/6/1 32/3/1
f 33/2/1 34/5/1 35/6/1 36/3/1
f 37/2/1 38/5/1 39/6/1 40/3/1
f 41/5/1 42/7/1 43/8/1 44/6/1
f 45/9/1 46/10/1 47/7/1 48/5/1
f 49/9/1 50/10/1 51/7/1 52/5/1
f 53/9/1 54/10/1 55/7/1 56/5/1
f 57/9/1 58/10/1 59/7/1 60/5/1
f 61/9/1 62/10/1 63/7/1 64/5/1
f 65/9/1 66/10/1 67/7/1 68/5/1
f 69/11/1 70/12/1 71/9/1 72/13/1
f 73/11/1 74/12/1 75/9/1 76/13/1
f 77/11/1 78/12/1 79/9/1 80/13/1
f 81/11/1 82/12/1 83/9/1 84/13/1
f 85/11/1 86/12/1 87/9/1 88/13/1
f 89/11/1 90/12/1 91/9/1 92/13/1
f 93/11/1 94/12/1 95/9/1 96/13/1
f 97/11/1 98/12/1 99/9/1 100/13/1
f 101/11/1 102/12/1 103/9/1 104/13/1
f 105/12/1 106/14/1 107/10/1 108/9/1
f 109/2/1 110/5/1 111/6/1 112/3/1
f 113/2/1 114/5/1 115/6/1 116/3/1
f 117/2/1 118/5/1 119/6/1 120/3/1
f 121/2/1 122/5/1 123/6/1 124/3/1
f 125/2/1 126/5/1 127/6/1 128/3/1
f 129/2/1 130/5/1 131/6/1 132/3/1
f 133/2/1 134/5/1 135/6/1 136/3/1
f 137/2/1 138/5/1 139/6/1 140/3/1
f 141/2/1 142/5/1 143/6/1 144/3/1
f 145/2/1 146/5/1 147/6/1 148/3/1
f 149/2/1 150/5/1 151/6/1 152/3/1
f 153/2/1 154/5/1 155/6/1 156/3/1
f 157/2/1 158/5/1 159/6/1 160/3/1
f 161/2/1 162/5/1 163/6/1 164/3/1
f 165/2/1 166/5/1 167/6/1 168/3/1
f 169/2/1 170/5/1 171/6/1 172/3/1

