# Tiled2Unity generated file. Do not modify by hand.
# Wavefront file for 'grave22_mesh_0004.obj'

# Vertices (Count = 388)
v -34 -8 0
v -36 -8 0
v -36 -6 0
v -34 -6 0
v -12 -10 0
v -14 -10 0
v -14 -8 0
v -12 -8 0
v -14 -10 0
v -16 -10 0
v -16 -8 0
v -14 -8 0
v -30 -10 0
v -32 -10 0
v -32 -8 0
v -30 -8 0
v -32 -10 0
v -34 -10 0
v -34 -8 0
v -32 -8 0
v -34 -10 0
v -36 -10 0
v -36 -8 0
v -34 -8 0
v -36 -10 0
v -38 -10 0
v -38 -8 0
v -36 -8 0
v -10 -12 0
v -12 -12 0
v -12 -10 0
v -10 -10 0
v -12 -12 0
v -14 -12 0
v -14 -10 0
v -12 -10 0
v -14 -12 0
v -16 -12 0
v -16 -10 0
v -14 -10 0
v -16 -12 0
v -18 -12 0
v -18 -10 0
v -16 -10 0
v -30 -12 0
v -32 -12 0
v -32 -10 0
v -30 -10 0
v -32 -12 0
v -34 -12 0
v -34 -10 0
v -32 -10 0
v -30 -16 0
v -32 -16 0
v -32 -14 0
v -30 -14 0
v -32 -16 0
v -34 -16 0
v -34 -14 0
v -32 -14 0
v -34 -16 0
v -36 -16 0
v -36 -14 0
v -34 -14 0
v -32 -18 0
v -34 -18 0
v -34 -16 0
v -32 -16 0
v -34 -18 0
v -36 -18 0
v -36 -16 0
v -34 -16 0
v -30 -20 0
v -32 -20 0
v -32 -18 0
v -30 -18 0
v -32 -20 0
v -34 -20 0
v -34 -18 0
v -32 -18 0
v -34 -20 0
v -36 -20 0
v -36 -18 0
v -34 -18 0
v -2 -22 0
v -4 -22 0
v -4 -20 0
v -2 -20 0
v -4 -22 0
v -6 -22 0
v -6 -20 0
v -4 -20 0
v -2 -24 0
v -4 -24 0
v -4 -22 0
v -2 -22 0
v -4 -24 0
v -6 -24 0
v -6 -22 0
v -4 -22 0
v -10 -24 0
v -12 -24 0
v -12 -22 0
v -10 -22 0
v -12 -24 0
v -14 -24 0
v -14 -22 0
v -12 -22 0
v -14 -24 0
v -16 -24 0
v -16 -22 0
v -14 -22 0
v -32 -24 0
v -34 -24 0
v -34 -22 0
v -32 -22 0
v -16 -26 0
v -18 -26 0
v -18 -24 0
v -16 -24 0
v -18 -26 0
v -20 -26 0
v -20 -24 0
v -18 -24 0
v -20 -26 0
v -22 -26 0
v -22 -24 0
v -20 -24 0
v -8 -28 0
v -10 -28 0
v -10 -26 0
v -8 -26 0
v -10 -28 0
v -12 -28 0
v -12 -26 0
v -10 -26 0
v -12 -28 0
v -14 -28 0
v -14 -26 0
v -12 -26 0
v -14 -28 0
v -16 -28 0
v -16 -26 0
v -14 -26 0
v -16 -28 0
v -18 -28 0
v -18 -26 0
v -16 -26 0
v -18 -28 0
v -20 -28 0
v -20 -26 0
v -18 -26 0
v -20 -28 0
v -22 -28 0
v -22 -26 0
v -20 -26 0
v -26 -28 0
v -28 -28 0
v -28 -26 0
v -26 -26 0
v -28 -28 0
v -30 -28 0
v -30 -26 0
v -28 -26 0
v -30 -28 0
v -32 -28 0
v -32 -26 0
v -30 -26 0
v -8 -30 0
v -10 -30 0
v -10 -28 0
v -8 -28 0
v -10 -30 0
v -12 -30 0
v -12 -28 0
v -10 -28 0
v -12 -30 0
v -14 -30 0
v -14 -28 0
v -12 -28 0
v -14 -30 0
v -16 -30 0
v -16 -28 0
v -14 -28 0
v -16 -30 0
v -18 -30 0
v -18 -28 0
v -16 -28 0
v -18 -30 0
v -20 -30 0
v -20 -28 0
v -18 -28 0
v -20 -30 0
v -22 -30 0
v -22 -28 0
v -20 -28 0
v -22 -30 0
v -24 -30 0
v -24 -28 0
v -22 -28 0
v -24 -30 0
v -26 -30 0
v -26 -28 0
v -24 -28 0
v -26 -30 0
v -28 -30 0
v -28 -28 0
v -26 -28 0
v -28 -30 0
v -30 -30 0
v -30 -28 0
v -28 -28 0
v -30 -30 0
v -32 -30 0
v -32 -28 0
v -30 -28 0
v -4 -32 0
v -6 -32 0
v -6 -30 0
v -4 -30 0
v -8 -32 0
v -10 -32 0
v -10 -30 0
v -8 -30 0
v -10 -32 0
v -12 -32 0
v -12 -30 0
v -10 -30 0
v -12 -32 0
v -14 -32 0
v -14 -30 0
v -12 -30 0
v -14 -32 0
v -16 -32 0
v -16 -30 0
v -14 -30 0
v -22 -32 0
v -24 -32 0
v -24 -30 0
v -22 -30 0
v -24 -32 0
v -26 -32 0
v -26 -30 0
v -24 -30 0
v -26 -32 0
v -28 -32 0
v -28 -30 0
v -26 -30 0
v -28 -32 0
v -30 -32 0
v -30 -30 0
v -28 -30 0
v -30 -32 0
v -32 -32 0
v -32 -30 0
v -30 -30 0
v -4 -34 0
v -6 -34 0
v -6 -32 0
v -4 -32 0
v -8 -34 0
v -10 -34 0
v -10 -32 0
v -8 -32 0
v -10 -34 0
v -12 -34 0
v -12 -32 0
v -10 -32 0
v -12 -34 0
v -14 -34 0
v -14 -32 0
v -12 -32 0
v -14 -34 0
v -16 -34 0
v -16 -32 0
v -14 -32 0
v -18 -34 0
v -20 -34 0
v -20 -32 0
v -18 -32 0
v -24 -34 0
v -26 -34 0
v -26 -32 0
v -24 -32 0
v -26 -34 0
v -28 -34 0
v -28 -32 0
v -26 -32 0
v -4 -36 0
v -6 -36 0
v -6 -34 0
v -4 -34 0
v -12 -36 0
v -14 -36 0
v -14 -34 0
v -12 -34 0
v -14 -36 0
v -16 -36 0
v -16 -34 0
v -14 -34 0
v -24 -36 0
v -26 -36 0
v -26 -34 0
v -24 -34 0
v -26 -36 0
v -28 -36 0
v -28 -34 0
v -26 -34 0
v 0 -40 0
v -2 -40 0
v -2 -38 0
v 0 -38 0
v -2 -40 0
v -4 -40 0
v -4 -38 0
v -2 -38 0
v -4 -40 0
v -6 -40 0
v -6 -38 0
v -4 -38 0
v -6 -40 0
v -8 -40 0
v -8 -38 0
v -6 -38 0
v -8 -40 0
v -10 -40 0
v -10 -38 0
v -8 -38 0
v -10 -40 0
v -12 -40 0
v -12 -38 0
v -10 -38 0
v -12 -40 0
v -14 -40 0
v -14 -38 0
v -12 -38 0
v -14 -40 0
v -16 -40 0
v -16 -38 0
v -14 -38 0
v -16 -40 0
v -18 -40 0
v -18 -38 0
v -16 -38 0
v -18 -40 0
v -20 -40 0
v -20 -38 0
v -18 -38 0
v -20 -40 0
v -22 -40 0
v -22 -38 0
v -20 -38 0
v -22 -40 0
v -24 -40 0
v -24 -38 0
v -22 -38 0
v -24 -40 0
v -26 -40 0
v -26 -38 0
v -24 -38 0
v -26 -40 0
v -28 -40 0
v -28 -38 0
v -26 -38 0
v -28 -40 0
v -30 -40 0
v -30 -38 0
v -28 -38 0
v -30 -40 0
v -32 -40 0
v -32 -38 0
v -30 -38 0
v -32 -40 0
v -34 -40 0
v -34 -38 0
v -32 -38 0
v -34 -40 0
v -36 -40 0
v -36 -38 0
v -34 -38 0
v -36 -40 0
v -38 -40 0
v -38 -38 0
v -36 -38 0
v -38 -40 0
v -40 -40 0
v -40 -38 0
v -38 -38 0

# Texture cooridinates (Count = 31)
vt 0.09375 0.78125
vt 0.125 0.78125
vt 0.125 0.8125
vt 0.09375 0.8125
vt 0.0625 0.78125
vt 0.0625 0.8125
vt 0.0625 0.75
vt 0.09375 0.75
vt 0.125 0.75
vt 0 0.5625
vt 0.03125 0.5625
vt 0.03125 0.59375
vt 0 0.59375
vt 0.0625 0.5625
vt 0.0625 0.59375
vt 0.09375 0.5625
vt 0.09375 0.59375
vt 0 0.53125
vt 0.03125 0.53125
vt 0.0625 0.53125
vt 0.09375 0.53125
vt 0.125 0.5625
vt 0.125 0.59375
vt 0.15625 0.5625
vt 0.15625 0.59375
vt 0.125 0.53125
vt 0.15625 0.53125
vt 0.03125 0.6875
vt 0.0625 0.6875
vt 0.0625 0.71875
vt 0.03125 0.71875

# Normal
vn 0 0 -1

# Mesh description
g grave22_mesh_0004

# Faces
f 1/1/1 2/2/1 3/3/1 4/4/1
f 5/5/1 6/1/1 7/4/1 8/6/1
f 9/1/1 10/2/1 11/3/1 12/4/1
f 13/7/1 14/8/1 15/1/1 16/5/1
f 17/5/1 18/1/1 19/4/1 20/6/1
f 21/5/1 22/1/1 23/4/1 24/6/1
f 25/1/1 26/2/1 27/3/1 28/4/1
f 29/5/1 30/1/1 31/4/1 32/6/1
f 33/5/1 34/1/1 35/4/1 36/6/1
f 37/1/1 38/2/1 39/3/1 40/4/1
f 41/1/1 42/2/1 43/3/1 44/4/1
f 45/7/1 46/8/1 47/1/1 48/5/1
f 49/7/1 50/8/1 51/1/1 52/5/1
f 53/7/1 54/8/1 55/1/1 56/5/1
f 57/8/1 58/9/1 59/2/1 60/1/1
f 61/8/1 62/9/1 63/2/1 64/1/1
f 65/7/1 66/8/1 67/1/1 68/5/1
f 69/8/1 70/9/1 71/2/1 72/1/1
f 73/5/1 74/1/1 75/4/1 76/6/1
f 77/7/1 78/8/1 79/1/1 80/5/1
f 81/8/1 82/9/1 83/2/1 84/1/1
f 85/5/1 86/1/1 87/4/1 88/6/1
f 89/5/1 90/1/1 91/4/1 92/6/1
f 93/7/1 94/8/1 95/1/1 96/5/1
f 97/7/1 98/8/1 99/1/1 100/5/1
f 101/5/1 102/1/1 103/4/1 104/6/1
f 105/5/1 106/1/1 107/4/1 108/6/1
f 109/1/1 110/2/1 111/3/1 112/4/1
f 113/8/1 114/9/1 115/2/1 116/1/1
f 117/10/1 118/11/1 119/12/1 120/13/1
f 121/11/1 122/14/1 123/15/1 124/12/1
f 125/14/1 126/16/1 127/17/1 128/15/1
f 129/5/1 130/1/1 131/4/1 132/6/1
f 133/1/1 134/2/1 135/3/1 136/4/1
f 137/8/1 138/9/1 139/2/1 140/1/1
f 141/8/1 142/9/1 143/2/1 144/1/1
f 145/18/1 146/19/1 147/11/1 148/10/1
f 149/19/1 150/20/1 151/14/1 152/11/1
f 153/20/1 154/21/1 155/16/1 156/14/1
f 157/5/1 158/1/1 159/4/1 160/6/1
f 161/7/1 162/8/1 163/1/1 164/5/1
f 165/8/1 166/9/1 167/2/1 168/1/1
f 169/5/1 170/1/1 171/4/1 172/6/1
f 173/5/1 174/1/1 175/4/1 176/6/1
f 177/5/1 178/1/1 179/4/1 180/6/1
f 181/1/1 182/2/1 183/3/1 184/4/1
f 185/7/1 186/8/1 187/1/1 188/5/1
f 189/7/1 190/8/1 191/1/1 192/5/1
f 193/8/1 194/9/1 195/2/1 196/1/1
f 197/8/1 198/9/1 199/2/1 200/1/1
f 201/8/1 202/9/1 203/2/1 204/1/1
f 205/5/1 206/1/1 207/4/1 208/6/1
f 209/7/1 210/8/1 211/1/1 212/5/1
f 213/8/1 214/9/1 215/2/1 216/1/1
f 217/5/1 218/1/1 219/4/1 220/6/1
f 221/1/1 222/2/1 223/3/1 224/4/1
f 225/1/1 226/2/1 227/3/1 228/4/1
f 229/5/1 230/1/1 231/4/1 232/6/1
f 233/1/1 234/2/1 235/3/1 236/4/1
f 237/7/1 238/8/1 239/1/1 240/5/1
f 241/5/1 242/1/1 243/4/1 244/6/1
f 245/7/1 246/8/1 247/1/1 248/5/1
f 249/7/1 250/8/1 251/1/1 252/5/1
f 253/8/1 254/9/1 255/2/1 256/1/1
f 257/5/1 258/1/1 259/4/1 260/6/1
f 261/5/1 262/1/1 263/4/1 264/6/1
f 265/5/1 266/1/1 267/4/1 268/6/1
f 269/16/1 270/22/1 271/23/1 272/17/1
f 273/22/1 274/24/1 275/25/1 276/23/1
f 277/5/1 278/1/1 279/4/1 280/6/1
f 281/16/1 282/22/1 283/23/1 284/17/1
f 285/22/1 286/24/1 287/25/1 288/23/1
f 289/7/1 290/8/1 291/1/1 292/5/1
f 293/21/1 294/26/1 295/22/1 296/16/1
f 297/26/1 298/27/1 299/24/1 300/22/1
f 301/21/1 302/26/1 303/22/1 304/16/1
f 305/26/1 306/27/1 307/24/1 308/22/1
f 309/28/1 310/29/1 311/30/1 312/31/1
f 313/28/1 314/29/1 315/30/1 316/31/1
f 317/28/1 318/29/1 319/30/1 320/31/1
f 321/28/1 322/29/1 323/30/1 324/31/1
f 325/28/1 326/29/1 327/30/1 328/31/1
f 329/28/1 330/29/1 331/30/1 332/31/1
f 333/28/1 334/29/1 335/30/1 336/31/1
f 337/28/1 338/29/1 339/30/1 340/31/1
f 341/28/1 342/29/1 343/30/1 344/31/1
f 345/28/1 346/29/1 347/30/1 348/31/1
f 349/28/1 350/29/1 351/30/1 352/31/1
f 353/28/1 354/29/1 355/30/1 356/31/1
f 357/28/1 358/29/1 359/30/1 360/31/1
f 361/28/1 362/29/1 363/30/1 364/31/1
f 365/28/1 366/29/1 367/30/1 368/31/1
f 369/28/1 370/29/1 371/30/1 372/31/1
f 373/28/1 374/29/1 375/30/1 376/31/1
f 377/28/1 378/29/1 379/30/1 380/31/1
f 381/28/1 382/29/1 383/30/1 384/31/1
f 385/28/1 386/29/1 387/30/1 388/31/1

