# Tiled2Unity generated file. Do not modify by hand.
# Wavefront file for 'grave21_mesh_0005.obj'

# Vertices (Count = 8)
v -16 -16 0
v -18 -16 0
v -18 -14 0
v -16 -14 0
v -22 -16 0
v -24 -16 0
v -24 -14 0
v -22 -14 0

# Texture cooridinates (Count = 8)
vt 0.40625 0.46875
vt 0.4375 0.46875
vt 0.4375 0.5
vt 0.40625 0.5
vt 0.5 0.46875
vt 0.53125 0.46875
vt 0.53125 0.5
vt 0.5 0.5

# Normal
vn 0 0 -1

# Mesh description
g grave21_mesh_0005

# Faces
f 1/1/1 2/2/1 3/3/1 4/4/1
f 5/5/1 6/6/1 7/7/1 8/8/1

