# Tiled2Unity generated file. Do not modify by hand.
# Wavefront file for 'grave21_mesh_0003.obj'

# Vertices (Count = 384)
v 0 -2 0
v -2 -2 0
v -2 0 0
v 0 0 0
v -2 -2 0
v -4 -2 0
v -4 0 0
v -2 0 0
v -4 -2 0
v -6 -2 0
v -6 0 0
v -4 0 0
v -6 -2 0
v -8 -2 0
v -8 0 0
v -6 0 0
v -8 -2 0
v -10 -2 0
v -10 0 0
v -8 0 0
v -10 -2 0
v -12 -2 0
v -12 0 0
v -10 0 0
v -12 -2 0
v -14 -2 0
v -14 0 0
v -12 0 0
v -14 -2 0
v -16 -2 0
v -16 0 0
v -14 0 0
v -16 -2 0
v -18 -2 0
v -18 0 0
v -16 0 0
v -18 -2 0
v -20 -2 0
v -20 0 0
v -18 0 0
v -20 -2 0
v -22 -2 0
v -22 0 0
v -20 0 0
v -22 -2 0
v -24 -2 0
v -24 0 0
v -22 0 0
v -24 -2 0
v -26 -2 0
v -26 0 0
v -24 0 0
v -26 -2 0
v -28 -2 0
v -28 0 0
v -26 0 0
v -2 -4 0
v -4 -4 0
v -4 -2 0
v -2 -2 0
v -4 -4 0
v -6 -4 0
v -6 -2 0
v -4 -2 0
v -6 -4 0
v -8 -4 0
v -8 -2 0
v -6 -2 0
v -8 -4 0
v -10 -4 0
v -10 -2 0
v -8 -2 0
v -10 -4 0
v -12 -4 0
v -12 -2 0
v -10 -2 0
v -12 -4 0
v -14 -4 0
v -14 -2 0
v -12 -2 0
v -14 -4 0
v -16 -4 0
v -16 -2 0
v -14 -2 0
v -12 -6 0
v -14 -6 0
v -14 -4 0
v -12 -4 0
v -14 -6 0
v -16 -6 0
v -16 -4 0
v -14 -4 0
v -30 -8 0
v -32 -8 0
v -32 -6 0
v -30 -6 0
v -32 -8 0
v -34 -8 0
v -34 -6 0
v -32 -6 0
v -12 -10 0
v -14 -10 0
v -14 -8 0
v -12 -8 0
v -14 -10 0
v -16 -10 0
v -16 -8 0
v -14 -8 0
v -30 -10 0
v -32 -10 0
v -32 -8 0
v -30 -8 0
v -32 -10 0
v -34 -10 0
v -34 -8 0
v -32 -8 0
v -36 -10 0
v -38 -10 0
v -38 -8 0
v -36 -8 0
v -10 -12 0
v -12 -12 0
v -12 -10 0
v -10 -10 0
v -12 -12 0
v -14 -12 0
v -14 -10 0
v -12 -10 0
v -14 -12 0
v -16 -12 0
v -16 -10 0
v -14 -10 0
v -16 -12 0
v -18 -12 0
v -18 -10 0
v -16 -10 0
v -30 -12 0
v -32 -12 0
v -32 -10 0
v -30 -10 0
v -32 -12 0
v -34 -12 0
v -34 -10 0
v -32 -10 0
v -36 -12 0
v -38 -12 0
v -38 -10 0
v -36 -10 0
v -10 -14 0
v -12 -14 0
v -12 -12 0
v -10 -12 0
v -12 -14 0
v -14 -14 0
v -14 -12 0
v -12 -12 0
v -14 -14 0
v -16 -14 0
v -16 -12 0
v -14 -12 0
v -16 -14 0
v -18 -14 0
v -18 -12 0
v -16 -12 0
v -32 -14 0
v -34 -14 0
v -34 -12 0
v -32 -12 0
v -32 -16 0
v -34 -16 0
v -34 -14 0
v -32 -14 0
v -32 -18 0
v -34 -18 0
v -34 -16 0
v -32 -16 0
v -32 -20 0
v -34 -20 0
v -34 -18 0
v -32 -18 0
v -2 -22 0
v -4 -22 0
v -4 -20 0
v -2 -20 0
v -4 -22 0
v -6 -22 0
v -6 -20 0
v -4 -20 0
v -8 -22 0
v -10 -22 0
v -10 -20 0
v -8 -20 0
v -10 -22 0
v -12 -22 0
v -12 -20 0
v -10 -20 0
v -30 -22 0
v -32 -22 0
v -32 -20 0
v -30 -20 0
v -32 -22 0
v -34 -22 0
v -34 -20 0
v -32 -20 0
v -2 -24 0
v -4 -24 0
v -4 -22 0
v -2 -22 0
v -4 -24 0
v -6 -24 0
v -6 -22 0
v -4 -22 0
v -8 -24 0
v -10 -24 0
v -10 -22 0
v -8 -22 0
v -10 -24 0
v -12 -24 0
v -12 -22 0
v -10 -22 0
v -12 -24 0
v -14 -24 0
v -14 -22 0
v -12 -22 0
v -14 -24 0
v -16 -24 0
v -16 -22 0
v -14 -22 0
v -32 -24 0
v -34 -24 0
v -34 -22 0
v -32 -22 0
v -6 -28 0
v -8 -28 0
v -8 -26 0
v -6 -26 0
v -8 -28 0
v -10 -28 0
v -10 -26 0
v -8 -26 0
v -10 -28 0
v -12 -28 0
v -12 -26 0
v -10 -26 0
v -12 -28 0
v -14 -28 0
v -14 -26 0
v -12 -26 0
v -14 -28 0
v -16 -28 0
v -16 -26 0
v -14 -26 0
v -16 -28 0
v -18 -28 0
v -18 -26 0
v -16 -26 0
v -4 -32 0
v -6 -32 0
v -6 -30 0
v -4 -30 0
v -6 -32 0
v -8 -32 0
v -8 -30 0
v -6 -30 0
v -8 -32 0
v -10 -32 0
v -10 -30 0
v -8 -30 0
v -10 -32 0
v -12 -32 0
v -12 -30 0
v -10 -30 0
v -12 -32 0
v -14 -32 0
v -14 -30 0
v -12 -30 0
v -14 -32 0
v -16 -32 0
v -16 -30 0
v -14 -30 0
v -22 -32 0
v -24 -32 0
v -24 -30 0
v -22 -30 0
v -4 -34 0
v -6 -34 0
v -6 -32 0
v -4 -32 0
v -6 -34 0
v -8 -34 0
v -8 -32 0
v -6 -32 0
v -8 -34 0
v -10 -34 0
v -10 -32 0
v -8 -32 0
v -10 -34 0
v -12 -34 0
v -12 -32 0
v -10 -32 0
v -14 -34 0
v -16 -34 0
v -16 -32 0
v -14 -32 0
v -16 -34 0
v -18 -34 0
v -18 -32 0
v -16 -32 0
v -18 -34 0
v -20 -34 0
v -20 -32 0
v -18 -32 0
v -20 -34 0
v -22 -34 0
v -22 -32 0
v -20 -32 0
v -22 -34 0
v -24 -34 0
v -24 -32 0
v -22 -32 0
v -2 -40 0
v -4 -40 0
v -4 -38 0
v -2 -38 0
v -4 -40 0
v -6 -40 0
v -6 -38 0
v -4 -38 0
v -10 -40 0
v -12 -40 0
v -12 -38 0
v -10 -38 0
v -12 -40 0
v -14 -40 0
v -14 -38 0
v -12 -38 0
v -14 -40 0
v -16 -40 0
v -16 -38 0
v -14 -38 0
v -16 -40 0
v -18 -40 0
v -18 -38 0
v -16 -38 0
v -18 -40 0
v -20 -40 0
v -20 -38 0
v -18 -38 0
v -20 -40 0
v -22 -40 0
v -22 -38 0
v -20 -38 0
v -22 -40 0
v -24 -40 0
v -24 -38 0
v -22 -38 0
v -24 -40 0
v -26 -40 0
v -26 -38 0
v -24 -38 0
v -26 -40 0
v -28 -40 0
v -28 -38 0
v -26 -38 0
v -30 -40 0
v -32 -40 0
v -32 -38 0
v -30 -38 0
v -32 -40 0
v -34 -40 0
v -34 -38 0
v -32 -38 0
v -34 -40 0
v -36 -40 0
v -36 -38 0
v -34 -38 0
v -36 -40 0
v -38 -40 0
v -38 -38 0
v -36 -38 0
v -38 -40 0
v -40 -40 0
v -40 -38 0
v -38 -38 0

# Texture cooridinates (Count = 9)
vt 0.09375 0.78125
vt 0.125 0.78125
vt 0.125 0.8125
vt 0.09375 0.8125
vt 0.0625 0.78125
vt 0.0625 0.8125
vt 0.0625 0.75
vt 0.09375 0.75
vt 0.125 0.75

# Normal
vn 0 0 -1

# Mesh description
g grave21_mesh_0003

# Faces
f 1/1/1 2/2/1 3/3/1 4/4/1
f 5/1/1 6/2/1 7/3/1 8/4/1
f 9/1/1 10/2/1 11/3/1 12/4/1
f 13/1/1 14/2/1 15/3/1 16/4/1
f 17/1/1 18/2/1 19/3/1 20/4/1
f 21/1/1 22/2/1 23/3/1 24/4/1
f 25/1/1 26/2/1 27/3/1 28/4/1
f 29/1/1 30/2/1 31/3/1 32/4/1
f 33/1/1 34/2/1 35/3/1 36/4/1
f 37/1/1 38/2/1 39/3/1 40/4/1
f 41/1/1 42/2/1 43/3/1 44/4/1
f 45/1/1 46/2/1 47/3/1 48/4/1
f 49/1/1 50/2/1 51/3/1 52/4/1
f 53/1/1 54/2/1 55/3/1 56/4/1
f 57/1/1 58/2/1 59/3/1 60/4/1
f 61/1/1 62/2/1 63/3/1 64/4/1
f 65/1/1 66/2/1 67/3/1 68/4/1
f 69/1/1 70/2/1 71/3/1 72/4/1
f 73/1/1 74/2/1 75/3/1 76/4/1
f 77/1/1 78/2/1 79/3/1 80/4/1
f 81/1/1 82/2/1 83/3/1 84/4/1
f 85/1/1 86/2/1 87/3/1 88/4/1
f 89/1/1 90/2/1 91/3/1 92/4/1
f 93/5/1 94/1/1 95/4/1 96/6/1
f 97/5/1 98/1/1 99/4/1 100/6/1
f 101/5/1 102/1/1 103/4/1 104/6/1
f 105/1/1 106/2/1 107/3/1 108/4/1
f 109/7/1 110/8/1 111/1/1 112/5/1
f 113/5/1 114/1/1 115/4/1 116/6/1
f 117/1/1 118/2/1 119/3/1 120/4/1
f 121/5/1 122/1/1 123/4/1 124/6/1
f 125/5/1 126/1/1 127/4/1 128/6/1
f 129/1/1 130/2/1 131/3/1 132/4/1
f 133/1/1 134/2/1 135/3/1 136/4/1
f 137/7/1 138/8/1 139/1/1 140/5/1
f 141/7/1 142/8/1 143/1/1 144/5/1
f 145/8/1 146/9/1 147/2/1 148/1/1
f 149/7/1 150/8/1 151/1/1 152/5/1
f 153/7/1 154/8/1 155/1/1 156/5/1
f 157/8/1 158/9/1 159/2/1 160/1/1
f 161/8/1 162/9/1 163/2/1 164/1/1
f 165/8/1 166/9/1 167/2/1 168/1/1
f 169/8/1 170/9/1 171/2/1 172/1/1
f 173/7/1 174/8/1 175/1/1 176/5/1
f 177/7/1 178/8/1 179/1/1 180/5/1
f 181/5/1 182/1/1 183/4/1 184/6/1
f 185/5/1 186/1/1 187/4/1 188/6/1
f 189/5/1 190/1/1 191/4/1 192/6/1
f 193/1/1 194/2/1 195/3/1 196/4/1
f 197/7/1 198/8/1 199/1/1 200/5/1
f 201/8/1 202/9/1 203/2/1 204/1/1
f 205/7/1 206/8/1 207/1/1 208/5/1
f 209/7/1 210/8/1 211/1/1 212/5/1
f 213/5/1 214/1/1 215/4/1 216/6/1
f 217/5/1 218/1/1 219/4/1 220/6/1
f 221/5/1 222/1/1 223/4/1 224/6/1
f 225/1/1 226/2/1 227/3/1 228/4/1
f 229/8/1 230/9/1 231/2/1 232/1/1
f 233/5/1 234/1/1 235/4/1 236/6/1
f 237/5/1 238/1/1 239/4/1 240/6/1
f 241/1/1 242/2/1 243/3/1 244/4/1
f 245/8/1 246/9/1 247/2/1 248/1/1
f 249/8/1 250/9/1 251/2/1 252/1/1
f 253/8/1 254/9/1 255/2/1 256/1/1
f 257/5/1 258/1/1 259/4/1 260/6/1
f 261/1/1 262/2/1 263/3/1 264/4/1
f 265/1/1 266/2/1 267/3/1 268/4/1
f 269/1/1 270/2/1 271/3/1 272/4/1
f 273/5/1 274/1/1 275/4/1 276/6/1
f 277/1/1 278/2/1 279/3/1 280/4/1
f 281/7/1 282/8/1 283/1/1 284/5/1
f 285/5/1 286/1/1 287/4/1 288/6/1
f 289/5/1 290/1/1 291/4/1 292/6/1
f 293/5/1 294/1/1 295/4/1 296/6/1
f 297/5/1 298/1/1 299/4/1 300/6/1
f 301/5/1 302/1/1 303/4/1 304/6/1
f 305/5/1 306/1/1 307/4/1 308/6/1
f 309/5/1 310/1/1 311/4/1 312/6/1
f 313/5/1 314/1/1 315/4/1 316/6/1
f 317/5/1 318/1/1 319/4/1 320/6/1
f 321/5/1 322/1/1 323/4/1 324/6/1
f 325/1/1 326/2/1 327/3/1 328/4/1
f 329/1/1 330/2/1 331/3/1 332/4/1
f 333/1/1 334/2/1 335/3/1 336/4/1
f 337/1/1 338/2/1 339/3/1 340/4/1
f 341/1/1 342/2/1 343/3/1 344/4/1
f 345/1/1 346/2/1 347/3/1 348/4/1
f 349/1/1 350/2/1 351/3/1 352/4/1
f 353/1/1 354/2/1 355/3/1 356/4/1
f 357/1/1 358/2/1 359/3/1 360/4/1
f 361/1/1 362/2/1 363/3/1 364/4/1
f 365/8/1 366/9/1 367/2/1 368/1/1
f 369/8/1 370/9/1 371/2/1 372/1/1
f 373/8/1 374/9/1 375/2/1 376/1/1
f 377/8/1 378/9/1 379/2/1 380/1/1
f 381/8/1 382/9/1 383/2/1 384/1/1

