# Tiled2Unity generated file. Do not modify by hand.
# Wavefront file for 'grave21_mesh_0007.obj'

# Vertices (Count = 16)
v -8 -32 0
v -10 -32 0
v -10 -30 0
v -8 -30 0
v -8 -34 0
v -10 -34 0
v -10 -32 0
v -8 -32 0
v -36 -36 0
v -38 -36 0
v -38 -34 0
v -36 -34 0
v -36 -38 0
v -38 -38 0
v -38 -36 0
v -36 -36 0

# Texture cooridinates (Count = 6)
vt 0.65625 0.03125
vt 0.6875 0.03125
vt 0.6875 0.0625
vt 0.65625 0.0625
vt 0.65625 0
vt 0.6875 0

# Normal
vn 0 0 -1

# Mesh description
g grave21_mesh_0007

# Faces
f 1/1/1 2/2/1 3/3/1 4/4/1
f 5/5/1 6/6/1 7/2/1 8/1/1
f 9/1/1 10/2/1 11/3/1 12/4/1
f 13/5/1 14/6/1 15/2/1 16/1/1

