# Tiled2Unity generated file. Do not modify by hand.
# Wavefront file for 'Bywater2_mesh_0030.obj'

# Vertices (Count = 16)
v -22.72 -20.48 0
v -24.49 -20.48 0
v -24.49 -13.55 0
v -22.72 -13.55 0
v -5.76 -20.48 0
v -7.53 -20.48 0
v -7.53 -13.55 0
v -5.76 -13.55 0
v -22.72 -23.04 0
v -24.49 -23.04 0
v -24.49 -16.11 0
v -22.72 -16.11 0
v -22.72 -24 0
v -24.49 -24 0
v -24.49 -17.07 0
v -22.72 -17.07 0

# Texture cooridinates (Count = 4)
vt 0 0
vt 1 0
vt 1 1
vt 0 1

# Normal
vn 0 0 -1

# Mesh description
g Bywater2_mesh_0030

# Faces
f 1/1/1 2/2/1 3/3/1 4/4/1
f 5/1/1 6/2/1 7/3/1 8/4/1
f 9/1/1 10/2/1 11/3/1 12/4/1
f 13/1/1 14/2/1 15/3/1 16/4/1

