# Tiled2Unity generated file. Do not modify by hand.
# Wavefront file for 'Bywater2_mesh_0003.obj'

# Vertices (Count = 44)
v -19.2 -0.32 0
v -20.3 -0.32 0
v -20.3 0.16 0
v -19.2 0.16 0
v -18.24 -0.32 0
v -19.34 -0.32 0
v -19.34 0.16 0
v -18.24 0.16 0
v -17.28 -0.32 0
v -18.38 -0.32 0
v -18.38 0.16 0
v -17.28 0.16 0
v -16.64 -0.32 0
v -17.74 -0.32 0
v -17.74 0.16 0
v -16.64 0.16 0
v -16.32 -0.32 0
v -17.42 -0.32 0
v -17.42 0.16 0
v -16.32 0.16 0
v -15.36 -0.32 0
v -16.46 -0.32 0
v -16.46 0.16 0
v -15.36 0.16 0
v -15.04 -0.32 0
v -16.14 -0.32 0
v -16.14 0.16 0
v -15.04 0.16 0
v -14.08 -0.32 0
v -15.18 -0.32 0
v -15.18 0.16 0
v -14.08 0.16 0
v -13.12 -0.32 0
v -14.22 -0.32 0
v -14.22 0.16 0
v -13.12 0.16 0
v -12.16 -0.32 0
v -13.26 -0.32 0
v -13.26 0.16 0
v -12.16 0.16 0
v 0 -0.32 0
v -1.1 -0.32 0
v -1.1 0.16 0
v 0 0.16 0

# Texture cooridinates (Count = 4)
vt 0 0
vt 1 0
vt 1 1
vt 0 1

# Normal
vn 0 0 -1

# Mesh description
g Bywater2_mesh_0003

# Faces
f 1/1/1 2/2/1 3/3/1 4/4/1
f 5/1/1 6/2/1 7/3/1 8/4/1
f 9/1/1 10/2/1 11/3/1 12/4/1
f 13/1/1 14/2/1 15/3/1 16/4/1
f 17/1/1 18/2/1 19/3/1 20/4/1
f 21/1/1 22/2/1 23/3/1 24/4/1
f 25/1/1 26/2/1 27/3/1 28/4/1
f 29/1/1 30/2/1 31/3/1 32/4/1
f 33/1/1 34/2/1 35/3/1 36/4/1
f 37/1/1 38/2/1 39/3/1 40/4/1
f 41/1/1 42/2/1 43/3/1 44/4/1

