# Tiled2Unity generated file. Do not modify by hand.
# Wavefront file for 'grave10_mesh_0002.obj'

# Vertices (Count = 44)
v -28 -36 0
v -30 -36 0
v -30 -34 0
v -28 -34 0
v -30 -36 0
v -32 -36 0
v -32 -34 0
v -30 -34 0
v -32 -36 0
v -34 -36 0
v -34 -34 0
v -32 -34 0
v -34 -36 0
v -36 -36 0
v -36 -34 0
v -34 -34 0
v -36 -36 0
v -38 -36 0
v -38 -34 0
v -36 -34 0
v -38 -36 0
v -40 -36 0
v -40 -34 0
v -38 -34 0
v -28 -38 0
v -30 -38 0
v -30 -36 0
v -28 -36 0
v -30 -38 0
v -32 -38 0
v -32 -36 0
v -30 -36 0
v -32 -38 0
v -34 -38 0
v -34 -36 0
v -32 -36 0
v -34 -38 0
v -36 -38 0
v -36 -36 0
v -34 -36 0
v -36 -38 0
v -38 -38 0
v -38 -36 0
v -36 -36 0

# Texture cooridinates (Count = 6)
vt 0.03125 0.90625
vt 0.0625 0.90625
vt 0.0625 0.9375
vt 0.03125 0.9375
vt 0.03125 0.875
vt 0.0625 0.875

# Normal
vn 0 0 -1

# Mesh description
g grave10_mesh_0002

# Faces
f 1/1/1 2/2/1 3/3/1 4/4/1
f 5/1/1 6/2/1 7/3/1 8/4/1
f 9/1/1 10/2/1 11/3/1 12/4/1
f 13/1/1 14/2/1 15/3/1 16/4/1
f 17/1/1 18/2/1 19/3/1 20/4/1
f 21/1/1 22/2/1 23/3/1 24/4/1
f 25/5/1 26/6/1 27/2/1 28/1/1
f 29/5/1 30/6/1 31/2/1 32/1/1
f 33/5/1 34/6/1 35/2/1 36/1/1
f 37/5/1 38/6/1 39/2/1 40/1/1
f 41/5/1 42/6/1 43/2/1 44/1/1

