# Tiled2Unity generated file. Do not modify by hand.
# Wavefront file for 'grave10_mesh_0004.obj'

# Vertices (Count = 272)
v -6 -4 0
v -8 -4 0
v -8 -2 0
v -6 -2 0
v -24 -4 0
v -26 -4 0
v -26 -2 0
v -24 -2 0
v -26 -4 0
v -28 -4 0
v -28 -2 0
v -26 -2 0
v -28 -4 0
v -30 -4 0
v -30 -2 0
v -28 -2 0
v -30 -4 0
v -32 -4 0
v -32 -2 0
v -30 -2 0
v -32 -4 0
v -34 -4 0
v -34 -2 0
v -32 -2 0
v -34 -4 0
v -36 -4 0
v -36 -2 0
v -34 -2 0
v -36 -4 0
v -38 -4 0
v -38 -2 0
v -36 -2 0
v -38 -4 0
v -40 -4 0
v -40 -2 0
v -38 -2 0
v -6 -6 0
v -8 -6 0
v -8 -4 0
v -6 -4 0
v -6 -8 0
v -8 -8 0
v -8 -6 0
v -6 -6 0
v -6 -10 0
v -8 -10 0
v -8 -8 0
v -6 -8 0
v -6 -12 0
v -8 -12 0
v -8 -10 0
v -6 -10 0
v -6 -14 0
v -8 -14 0
v -8 -12 0
v -6 -12 0
v -6 -16 0
v -8 -16 0
v -8 -14 0
v -6 -14 0
v -6 -18 0
v -8 -18 0
v -8 -16 0
v -6 -16 0
v -6 -20 0
v -8 -20 0
v -8 -18 0
v -6 -18 0
v -6 -22 0
v -8 -22 0
v -8 -20 0
v -6 -20 0
v -28 -22 0
v -30 -22 0
v -30 -20 0
v -28 -20 0
v -30 -22 0
v -32 -22 0
v -32 -20 0
v -30 -20 0
v -6 -24 0
v -8 -24 0
v -8 -22 0
v -6 -22 0
v -28 -24 0
v -30 -24 0
v -30 -22 0
v -28 -22 0
v -30 -24 0
v -32 -24 0
v -32 -22 0
v -30 -22 0
v -6 -26 0
v -8 -26 0
v -8 -24 0
v -6 -24 0
v -8 -26 0
v -10 -26 0
v -10 -24 0
v -8 -24 0
v -10 -26 0
v -12 -26 0
v -12 -24 0
v -10 -24 0
v -12 -26 0
v -14 -26 0
v -14 -24 0
v -12 -24 0
v -14 -26 0
v -16 -26 0
v -16 -24 0
v -14 -24 0
v -16 -26 0
v -18 -26 0
v -18 -24 0
v -16 -24 0
v -18 -26 0
v -20 -26 0
v -20 -24 0
v -18 -24 0
v -20 -26 0
v -22 -26 0
v -22 -24 0
v -20 -24 0
v -22 -26 0
v -24 -26 0
v -24 -24 0
v -22 -24 0
v -24 -26 0
v -26 -26 0
v -26 -24 0
v -24 -24 0
v -26 -26 0
v -28 -26 0
v -28 -24 0
v -26 -24 0
v -28 -26 0
v -30 -26 0
v -30 -24 0
v -28 -24 0
v -30 -26 0
v -32 -26 0
v -32 -24 0
v -30 -24 0
v -32 -26 0
v -34 -26 0
v -34 -24 0
v -32 -24 0
v -34 -26 0
v -36 -26 0
v -36 -24 0
v -34 -24 0
v -36 -26 0
v -38 -26 0
v -38 -24 0
v -36 -24 0
v -38 -26 0
v -40 -26 0
v -40 -24 0
v -38 -24 0
v -6 -36 0
v -8 -36 0
v -8 -34 0
v -6 -34 0
v -8 -36 0
v -10 -36 0
v -10 -34 0
v -8 -34 0
v -10 -36 0
v -12 -36 0
v -12 -34 0
v -10 -34 0
v -12 -36 0
v -14 -36 0
v -14 -34 0
v -12 -34 0
v -14 -36 0
v -16 -36 0
v -16 -34 0
v -14 -34 0
v -16 -36 0
v -18 -36 0
v -18 -34 0
v -16 -34 0
v -18 -36 0
v -20 -36 0
v -20 -34 0
v -18 -34 0
v -20 -36 0
v -22 -36 0
v -22 -34 0
v -20 -34 0
v -22 -36 0
v -24 -36 0
v -24 -34 0
v -22 -34 0
v -24 -36 0
v -26 -36 0
v -26 -34 0
v -24 -34 0
v -26 -36 0
v -28 -36 0
v -28 -34 0
v -26 -34 0
v -6 -38 0
v -8 -38 0
v -8 -36 0
v -6 -36 0
v -8 -38 0
v -10 -38 0
v -10 -36 0
v -8 -36 0
v -10 -38 0
v -12 -38 0
v -12 -36 0
v -10 -36 0
v -12 -38 0
v -14 -38 0
v -14 -36 0
v -12 -36 0
v -14 -38 0
v -16 -38 0
v -16 -36 0
v -14 -36 0
v -16 -38 0
v -18 -38 0
v -18 -36 0
v -16 -36 0
v -18 -38 0
v -20 -38 0
v -20 -36 0
v -18 -36 0
v -20 -38 0
v -22 -38 0
v -22 -36 0
v -20 -36 0
v -22 -38 0
v -24 -38 0
v -24 -36 0
v -22 -36 0
v -24 -38 0
v -26 -38 0
v -26 -36 0
v -24 -36 0
v -26 -38 0
v -28 -38 0
v -28 -36 0
v -26 -36 0
v -30 -38 0
v -32 -38 0
v -32 -36 0
v -30 -36 0
v -32 -38 0
v -34 -38 0
v -34 -36 0
v -32 -36 0
v -34 -38 0
v -36 -38 0
v -36 -36 0
v -34 -36 0
v -36 -38 0
v -38 -38 0
v -38 -36 0
v -36 -36 0
v -38 -38 0
v -40 -38 0
v -40 -36 0
v -38 -36 0
v -6 -40 0
v -8 -40 0
v -8 -38 0
v -6 -38 0

# Texture cooridinates (Count = 21)
vt 0 0.90625
vt 0.03125 0.90625
vt 0.03125 0.9375
vt 0 0.9375
vt 0.03125 0.875
vt 0.0625 0.875
vt 0.0625 0.90625
vt 0 0.875
vt 0.90625 0.71875
vt 0.9375 0.71875
vt 0.9375 0.75
vt 0.90625 0.75
vt 0.96875 0.71875
vt 0.96875 0.75
vt 0.90625 0.6875
vt 0.9375 0.6875
vt 0.96875 0.6875
vt 0 0.84375
vt 0.03125 0.84375
vt 0.0625 0.84375
vt 0.0625 0.9375

# Normal
vn 0 0 -1

# Mesh description
g grave10_mesh_0004

# Faces
f 1/1/1 2/2/1 3/3/1 4/4/1
f 5/5/1 6/6/1 7/7/1 8/2/1
f 9/5/1 10/6/1 11/7/1 12/2/1
f 13/5/1 14/6/1 15/7/1 16/2/1
f 17/5/1 18/6/1 19/7/1 20/2/1
f 21/5/1 22/6/1 23/7/1 24/2/1
f 25/5/1 26/6/1 27/7/1 28/2/1
f 29/5/1 30/6/1 31/7/1 32/2/1
f 33/5/1 34/6/1 35/7/1 36/2/1
f 37/8/1 38/5/1 39/2/1 40/1/1
f 41/8/1 42/5/1 43/2/1 44/1/1
f 45/8/1 46/5/1 47/2/1 48/1/1
f 49/8/1 50/5/1 51/2/1 52/1/1
f 53/8/1 54/5/1 55/2/1 56/1/1
f 57/8/1 58/5/1 59/2/1 60/1/1
f 61/8/1 62/5/1 63/2/1 64/1/1
f 65/8/1 66/5/1 67/2/1 68/1/1
f 69/8/1 70/5/1 71/2/1 72/1/1
f 73/9/1 74/10/1 75/11/1 76/12/1
f 77/10/1 78/13/1 79/14/1 80/11/1
f 81/8/1 82/5/1 83/2/1 84/1/1
f 85/15/1 86/16/1 87/10/1 88/9/1
f 89/16/1 90/17/1 91/13/1 92/10/1
f 93/18/1 94/19/1 95/5/1 96/8/1
f 97/19/1 98/20/1 99/6/1 100/5/1
f 101/19/1 102/20/1 103/6/1 104/5/1
f 105/19/1 106/20/1 107/6/1 108/5/1
f 109/19/1 110/20/1 111/6/1 112/5/1
f 113/19/1 114/20/1 115/6/1 116/5/1
f 117/19/1 118/20/1 119/6/1 120/5/1
f 121/19/1 122/20/1 123/6/1 124/5/1
f 125/19/1 126/20/1 127/6/1 128/5/1
f 129/19/1 130/20/1 131/6/1 132/5/1
f 133/19/1 134/20/1 135/6/1 136/5/1
f 137/19/1 138/20/1 139/6/1 140/5/1
f 141/19/1 142/20/1 143/6/1 144/5/1
f 145/19/1 146/20/1 147/6/1 148/5/1
f 149/19/1 150/20/1 151/6/1 152/5/1
f 153/19/1 154/20/1 155/6/1 156/5/1
f 157/19/1 158/20/1 159/6/1 160/5/1
f 161/1/1 162/2/1 163/3/1 164/4/1
f 165/2/1 166/7/1 167/21/1 168/3/1
f 169/2/1 170/7/1 171/21/1 172/3/1
f 173/2/1 174/7/1 175/21/1 176/3/1
f 177/2/1 178/7/1 179/21/1 180/3/1
f 181/2/1 182/7/1 183/21/1 184/3/1
f 185/2/1 186/7/1 187/21/1 188/3/1
f 189/2/1 190/7/1 191/21/1 192/3/1
f 193/2/1 194/7/1 195/21/1 196/3/1
f 197/2/1 198/7/1 199/21/1 200/3/1
f 201/2/1 202/7/1 203/21/1 204/3/1
f 205/8/1 206/5/1 207/2/1 208/1/1
f 209/5/1 210/6/1 211/7/1 212/2/1
f 213/5/1 214/6/1 215/7/1 216/2/1
f 217/5/1 218/6/1 219/7/1 220/2/1
f 221/5/1 222/6/1 223/7/1 224/2/1
f 225/5/1 226/6/1 227/7/1 228/2/1
f 229/5/1 230/6/1 231/7/1 232/2/1
f 233/5/1 234/6/1 235/7/1 236/2/1
f 237/5/1 238/6/1 239/7/1 240/2/1
f 241/5/1 242/6/1 243/7/1 244/2/1
f 245/5/1 246/6/1 247/7/1 248/2/1
f 249/5/1 250/6/1 251/7/1 252/2/1
f 253/5/1 254/6/1 255/7/1 256/2/1
f 257/5/1 258/6/1 259/7/1 260/2/1
f 261/5/1 262/6/1 263/7/1 264/2/1
f 265/5/1 266/6/1 267/7/1 268/2/1
f 269/8/1 270/5/1 271/2/1 272/1/1

