# Tiled2Unity generated file. Do not modify by hand.
# Wavefront file for 'grave11_mesh_0007.obj'

# Vertices (Count = 24)
v -8 -30 0
v -10 -30 0
v -10 -28 0
v -8 -28 0
v -10 -30 0
v -12 -30 0
v -12 -28 0
v -10 -28 0
v -12 -30 0
v -14 -30 0
v -14 -28 0
v -12 -28 0
v -14 -30 0
v -16 -30 0
v -16 -28 0
v -14 -28 0
v -16 -30 0
v -18 -30 0
v -18 -28 0
v -16 -28 0
v -18 -30 0
v -20 -30 0
v -20 -28 0
v -18 -28 0

# Texture cooridinates (Count = 6)
vt 0 0.125
vt 0.0625 0.125
vt 0.0625 0.1875
vt 0 0.1875
vt 0.125 0.125
vt 0.125 0.1875

# Normal
vn 0 0 -1

# Mesh description
g grave11_mesh_0007

# Faces
f 1/1/1 2/2/1 3/3/1 4/4/1
f 5/2/1 6/5/1 7/6/1 8/3/1
f 9/1/1 10/2/1 11/3/1 12/4/1
f 13/2/1 14/5/1 15/6/1 16/3/1
f 17/1/1 18/2/1 19/3/1 20/4/1
f 21/2/1 22/5/1 23/6/1 24/3/1

