# Tiled2Unity generated file. Do not modify by hand.
# Wavefront file for 'grave11_mesh_0003.obj'

# Vertices (Count = 228)
v -6 -2 0
v -8 -2 0
v -8 0 0
v -6 0 0
v -6 -4 0
v -8 -4 0
v -8 -2 0
v -6 -2 0
v -6 -6 0
v -8 -6 0
v -8 -4 0
v -6 -4 0
v -6 -8 0
v -8 -8 0
v -8 -6 0
v -6 -6 0
v -6 -10 0
v -8 -10 0
v -8 -8 0
v -6 -8 0
v -6 -12 0
v -8 -12 0
v -8 -10 0
v -6 -10 0
v -6 -14 0
v -8 -14 0
v -8 -12 0
v -6 -12 0
v -8 -14 0
v -10 -14 0
v -10 -12 0
v -8 -12 0
v -10 -14 0
v -12 -14 0
v -12 -12 0
v -10 -12 0
v -12 -14 0
v -14 -14 0
v -14 -12 0
v -12 -12 0
v -14 -14 0
v -16 -14 0
v -16 -12 0
v -14 -12 0
v -16 -14 0
v -18 -14 0
v -18 -12 0
v -16 -12 0
v -18 -14 0
v -20 -14 0
v -20 -12 0
v -18 -12 0
v -20 -14 0
v -22 -14 0
v -22 -12 0
v -20 -12 0
v -22 -14 0
v -24 -14 0
v -24 -12 0
v -22 -12 0
v -24 -14 0
v -26 -14 0
v -26 -12 0
v -24 -12 0
v -26 -14 0
v -28 -14 0
v -28 -12 0
v -26 -12 0
v -28 -14 0
v -30 -14 0
v -30 -12 0
v -28 -12 0
v -30 -14 0
v -32 -14 0
v -32 -12 0
v -30 -12 0
v -32 -14 0
v -34 -14 0
v -34 -12 0
v -32 -12 0
v -34 -14 0
v -36 -14 0
v -36 -12 0
v -34 -12 0
v -36 -14 0
v -38 -14 0
v -38 -12 0
v -36 -12 0
v -38 -14 0
v -40 -14 0
v -40 -12 0
v -38 -12 0
v -6 -16 0
v -8 -16 0
v -8 -14 0
v -6 -14 0
v -6 -18 0
v -8 -18 0
v -8 -16 0
v -6 -16 0
v -6 -20 0
v -8 -20 0
v -8 -18 0
v -6 -18 0
v -6 -22 0
v -8 -22 0
v -8 -20 0
v -6 -20 0
v -28 -22 0
v -30 -22 0
v -30 -20 0
v -28 -20 0
v -30 -22 0
v -32 -22 0
v -32 -20 0
v -30 -20 0
v -6 -24 0
v -8 -24 0
v -8 -22 0
v -6 -22 0
v -22 -24 0
v -24 -24 0
v -24 -22 0
v -22 -22 0
v -28 -24 0
v -30 -24 0
v -30 -22 0
v -28 -22 0
v -30 -24 0
v -32 -24 0
v -32 -22 0
v -30 -22 0
v -6 -26 0
v -8 -26 0
v -8 -24 0
v -6 -24 0
v -8 -26 0
v -10 -26 0
v -10 -24 0
v -8 -24 0
v -10 -26 0
v -12 -26 0
v -12 -24 0
v -10 -24 0
v -12 -26 0
v -14 -26 0
v -14 -24 0
v -12 -24 0
v -14 -26 0
v -16 -26 0
v -16 -24 0
v -14 -24 0
v -16 -26 0
v -18 -26 0
v -18 -24 0
v -16 -24 0
v -18 -26 0
v -20 -26 0
v -20 -24 0
v -18 -24 0
v -20 -26 0
v -22 -26 0
v -22 -24 0
v -20 -24 0
v -22 -26 0
v -24 -26 0
v -24 -24 0
v -22 -24 0
v -24 -26 0
v -26 -26 0
v -26 -24 0
v -24 -24 0
v -26 -26 0
v -28 -26 0
v -28 -24 0
v -26 -24 0
v -28 -26 0
v -30 -26 0
v -30 -24 0
v -28 -24 0
v -30 -26 0
v -32 -26 0
v -32 -24 0
v -30 -24 0
v -32 -26 0
v -34 -26 0
v -34 -24 0
v -32 -24 0
v -34 -26 0
v -36 -26 0
v -36 -24 0
v -34 -24 0
v -36 -26 0
v -38 -26 0
v -38 -24 0
v -36 -24 0
v -38 -26 0
v -40 -26 0
v -40 -24 0
v -38 -24 0
v -6 -28 0
v -8 -28 0
v -8 -26 0
v -6 -26 0
v -6 -30 0
v -8 -30 0
v -8 -28 0
v -6 -28 0
v -6 -32 0
v -8 -32 0
v -8 -30 0
v -6 -30 0
v -6 -34 0
v -8 -34 0
v -8 -32 0
v -6 -32 0
v -6 -36 0
v -8 -36 0
v -8 -34 0
v -6 -34 0
v -6 -38 0
v -8 -38 0
v -8 -36 0
v -6 -36 0
v -6 -40 0
v -8 -40 0
v -8 -38 0
v -6 -38 0

# Texture cooridinates (Count = 24)
vt 0 0.875
vt 0.03125 0.875
vt 0.03125 0.90625
vt 0 0.90625
vt 0.03125 0.9375
vt 0 0.9375
vt 0.0625 0.90625
vt 0.0625 0.9375
vt 0.90625 0.71875
vt 0.9375 0.71875
vt 0.9375 0.75
vt 0.90625 0.75
vt 0.96875 0.71875
vt 0.96875 0.75
vt 0 0.96875
vt 0.03125 0.96875
vt 0.03125 1
vt 0 1
vt 0.90625 0.6875
vt 0.9375 0.6875
vt 0.96875 0.6875
vt 0.03125 0.84375
vt 0.0625 0.84375
vt 0.0625 0.875

# Normal
vn 0 0 -1

# Mesh description
g grave11_mesh_0003

# Faces
f 1/1/1 2/2/1 3/3/1 4/4/1
f 5/1/1 6/2/1 7/3/1 8/4/1
f 9/1/1 10/2/1 11/3/1 12/4/1
f 13/1/1 14/2/1 15/3/1 16/4/1
f 17/1/1 18/2/1 19/3/1 20/4/1
f 21/1/1 22/2/1 23/3/1 24/4/1
f 25/4/1 26/3/1 27/5/1 28/6/1
f 29/3/1 30/7/1 31/8/1 32/5/1
f 33/3/1 34/7/1 35/8/1 36/5/1
f 37/3/1 38/7/1 39/8/1 40/5/1
f 41/3/1 42/7/1 43/8/1 44/5/1
f 45/3/1 46/7/1 47/8/1 48/5/1
f 49/3/1 50/7/1 51/8/1 52/5/1
f 53/3/1 54/7/1 55/8/1 56/5/1
f 57/3/1 58/7/1 59/8/1 60/5/1
f 61/3/1 62/7/1 63/8/1 64/5/1
f 65/3/1 66/7/1 67/8/1 68/5/1
f 69/3/1 70/7/1 71/8/1 72/5/1
f 73/3/1 74/7/1 75/8/1 76/5/1
f 77/3/1 78/7/1 79/8/1 80/5/1
f 81/3/1 82/7/1 83/8/1 84/5/1
f 85/3/1 86/7/1 87/8/1 88/5/1
f 89/3/1 90/7/1 91/8/1 92/5/1
f 93/1/1 94/2/1 95/3/1 96/4/1
f 97/1/1 98/2/1 99/3/1 100/4/1
f 101/1/1 102/2/1 103/3/1 104/4/1
f 105/1/1 106/2/1 107/3/1 108/4/1
f 109/9/1 110/10/1 111/11/1 112/12/1
f 113/10/1 114/13/1 115/14/1 116/11/1
f 117/1/1 118/2/1 119/3/1 120/4/1
f 121/15/1 122/16/1 123/17/1 124/18/1
f 125/19/1 126/20/1 127/10/1 128/9/1
f 129/20/1 130/21/1 131/13/1 132/10/1
f 133/1/1 134/2/1 135/3/1 136/4/1
f 137/22/1 138/23/1 139/24/1 140/2/1
f 141/22/1 142/23/1 143/24/1 144/2/1
f 145/22/1 146/23/1 147/24/1 148/2/1
f 149/22/1 150/23/1 151/24/1 152/2/1
f 153/22/1 154/23/1 155/24/1 156/2/1
f 157/22/1 158/23/1 159/24/1 160/2/1
f 161/22/1 162/23/1 163/24/1 164/2/1
f 165/6/1 166/5/1 167/16/1 168/15/1
f 169/22/1 170/23/1 171/24/1 172/2/1
f 173/22/1 174/23/1 175/24/1 176/2/1
f 177/22/1 178/23/1 179/24/1 180/2/1
f 181/22/1 182/23/1 183/24/1 184/2/1
f 185/22/1 186/23/1 187/24/1 188/2/1
f 189/22/1 190/23/1 191/24/1 192/2/1
f 193/22/1 194/23/1 195/24/1 196/2/1
f 197/22/1 198/23/1 199/24/1 200/2/1
f 201/1/1 202/2/1 203/3/1 204/4/1
f 205/1/1 206/2/1 207/3/1 208/4/1
f 209/1/1 210/2/1 211/3/1 212/4/1
f 213/1/1 214/2/1 215/3/1 216/4/1
f 217/1/1 218/2/1 219/3/1 220/4/1
f 221/1/1 222/2/1 223/3/1 224/4/1
f 225/1/1 226/2/1 227/3/1 228/4/1

