# Tiled2Unity generated file. Do not modify by hand.
# Wavefront file for 'grave11_mesh_0006.obj'

# Vertices (Count = 144)
v -8 -10 0
v -10 -10 0
v -10 -8 0
v -8 -8 0
v -8 -12 0
v -10 -12 0
v -10 -10 0
v -8 -10 0
v -8 -14 0
v -10 -14 0
v -10 -12 0
v -8 -12 0
v -18 -14 0
v -20 -14 0
v -20 -12 0
v -18 -12 0
v -26 -14 0
v -28 -14 0
v -28 -12 0
v -26 -12 0
v -28 -14 0
v -30 -14 0
v -30 -12 0
v -28 -12 0
v -8 -16 0
v -10 -16 0
v -10 -14 0
v -8 -14 0
v -12 -16 0
v -14 -16 0
v -14 -14 0
v -12 -14 0
v -14 -16 0
v -16 -16 0
v -16 -14 0
v -14 -14 0
v -16 -16 0
v -18 -16 0
v -18 -14 0
v -16 -14 0
v -18 -16 0
v -20 -16 0
v -20 -14 0
v -18 -14 0
v -20 -16 0
v -22 -16 0
v -22 -14 0
v -20 -14 0
v -22 -16 0
v -24 -16 0
v -24 -14 0
v -22 -14 0
v -24 -16 0
v -26 -16 0
v -26 -14 0
v -24 -14 0
v -26 -16 0
v -28 -16 0
v -28 -14 0
v -26 -14 0
v -28 -16 0
v -30 -16 0
v -30 -14 0
v -28 -14 0
v -30 -16 0
v -32 -16 0
v -32 -14 0
v -30 -14 0
v -32 -16 0
v -34 -16 0
v -34 -14 0
v -32 -14 0
v -34 -16 0
v -36 -16 0
v -36 -14 0
v -34 -14 0
v -36 -16 0
v -38 -16 0
v -38 -14 0
v -36 -14 0
v -38 -16 0
v -40 -16 0
v -40 -14 0
v -38 -14 0
v -26 -18 0
v -28 -18 0
v -28 -16 0
v -26 -16 0
v -28 -18 0
v -30 -18 0
v -30 -16 0
v -28 -16 0
v -34 -18 0
v -36 -18 0
v -36 -16 0
v -34 -16 0
v -36 -18 0
v -38 -18 0
v -38 -16 0
v -36 -16 0
v -32 -20 0
v -34 -20 0
v -34 -18 0
v -32 -18 0
v -34 -20 0
v -36 -20 0
v -36 -18 0
v -34 -18 0
v -36 -20 0
v -38 -20 0
v -38 -18 0
v -36 -18 0
v -10 -22 0
v -12 -22 0
v -12 -20 0
v -10 -20 0
v -12 -22 0
v -14 -22 0
v -14 -20 0
v -12 -20 0
v -28 -22 0
v -30 -22 0
v -30 -20 0
v -28 -20 0
v -34 -22 0
v -36 -22 0
v -36 -20 0
v -34 -20 0
v -36 -22 0
v -38 -22 0
v -38 -20 0
v -36 -20 0
v -38 -22 0
v -40 -22 0
v -40 -20 0
v -38 -20 0
v -10 -24 0
v -12 -24 0
v -12 -22 0
v -10 -22 0
v -12 -24 0
v -14 -24 0
v -14 -22 0
v -12 -22 0

# Texture cooridinates (Count = 66)
vt 0.1875 0.09375
vt 0.21875 0.09375
vt 0.21875 0.125
vt 0.1875 0.125
vt 0.1875 0.0625
vt 0.21875 0.0625
vt 0.1875 0.03125
vt 0.21875 0.03125
vt 0.25 0.03125
vt 0.25 0.0625
vt 0.40625 0.625
vt 0.4375 0.625
vt 0.4375 0.65625
vt 0.40625 0.65625
vt 0.4375 0.84375
vt 0.46875 0.84375
vt 0.46875 0.875
vt 0.4375 0.875
vt 0.1875 0
vt 0.21875 0
vt 0.46875 0.75
vt 0.5 0.75
vt 0.5 0.78125
vt 0.46875 0.78125
vt 0.53125 0.75
vt 0.53125 0.78125
vt 0.5625 0.75
vt 0.5625 0.78125
vt 0.59375 0.75
vt 0.59375 0.78125
vt 0.40625 0.59375
vt 0.4375 0.59375
vt 0.4375 0.8125
vt 0.46875 0.8125
vt 0.40625 0.5625
vt 0.4375 0.5625
vt 0.4375 0.78125
vt 0.4375 0.0625
vt 0.46875 0.0625
vt 0.46875 0.09375
vt 0.4375 0.09375
vt 0.5 0.0625
vt 0.5 0.09375
vt 0.53125 0.0625
vt 0.53125 0.09375
vt 0.4375 0.03125
vt 0.46875 0.03125
vt 0.5 0.03125
vt 0.09375 0.625
vt 0.125 0.625
vt 0.125 0.65625
vt 0.09375 0.65625
vt 0.15625 0.625
vt 0.15625 0.65625
vt 0.03125 0.09375
vt 0.0625 0.09375
vt 0.0625 0.125
vt 0.03125 0.125
vt 0.4375 0
vt 0.46875 0
vt 0.5 0
vt 0.5625 0.0625
vt 0.5625 0.09375
vt 0.09375 0.59375
vt 0.125 0.59375
vt 0.15625 0.59375

# Normal
vn 0 0 -1

# Mesh description
g grave11_mesh_0006

# Faces
f 1/1/1 2/2/1 3/3/1 4/4/1
f 5/5/1 6/6/1 7/2/1 8/1/1
f 9/7/1 10/8/1 11/6/1 12/5/1
f 13/8/1 14/9/1 15/10/1 16/6/1
f 17/11/1 18/12/1 19/13/1 20/14/1
f 21/15/1 22/16/1 23/17/1 24/18/1
f 25/19/1 26/20/1 27/8/1 28/7/1
f 29/21/1 30/22/1 31/23/1 32/24/1
f 33/22/1 34/25/1 35/26/1 36/23/1
f 37/25/1 38/27/1 39/28/1 40/26/1
f 41/21/1 42/22/1 43/23/1 44/24/1
f 45/22/1 46/25/1 47/26/1 48/23/1
f 49/25/1 50/27/1 51/28/1 52/26/1
f 53/27/1 54/29/1 55/30/1 56/28/1
f 57/31/1 58/32/1 59/12/1 60/11/1
f 61/33/1 62/34/1 63/16/1 64/15/1
f 65/21/1 66/22/1 67/23/1 68/24/1
f 69/21/1 70/22/1 71/23/1 72/24/1
f 73/22/1 74/25/1 75/26/1 76/23/1
f 77/25/1 78/27/1 79/28/1 80/26/1
f 81/27/1 82/29/1 83/30/1 84/28/1
f 85/35/1 86/36/1 87/32/1 88/31/1
f 89/37/1 90/24/1 91/34/1 92/33/1
f 93/38/1 94/39/1 95/40/1 96/41/1
f 97/39/1 98/42/1 99/43/1 100/40/1
f 101/42/1 102/44/1 103/45/1 104/43/1
f 105/46/1 106/47/1 107/39/1 108/38/1
f 109/47/1 110/48/1 111/42/1 112/39/1
f 113/49/1 114/50/1 115/51/1 116/52/1
f 117/50/1 118/53/1 119/54/1 120/51/1
f 121/55/1 122/56/1 123/57/1 124/58/1
f 125/59/1 126/60/1 127/47/1 128/46/1
f 129/60/1 130/61/1 131/48/1 132/47/1
f 133/44/1 134/62/1 135/63/1 136/45/1
f 137/64/1 138/65/1 139/50/1 140/49/1
f 141/65/1 142/66/1 143/53/1 144/50/1

