# Tiled2Unity generated file. Do not modify by hand.
# Wavefront file for 'grave20_mesh_0005.obj'

# Vertices (Count = 40)
v -8 -4 0
v -10 -4 0
v -10 -2 0
v -8 -2 0
v -10 -4 0
v -12 -4 0
v -12 -2 0
v -10 -2 0
v -12 -4 0
v -14 -4 0
v -14 -2 0
v -12 -2 0
v -14 -4 0
v -16 -4 0
v -16 -2 0
v -14 -2 0
v -16 -4 0
v -18 -4 0
v -18 -2 0
v -16 -2 0
v -18 -4 0
v -20 -4 0
v -20 -2 0
v -18 -2 0
v -20 -4 0
v -22 -4 0
v -22 -2 0
v -20 -2 0
v -22 -4 0
v -24 -4 0
v -24 -2 0
v -22 -2 0
v -8 -38 0
v -10 -38 0
v -10 -36 0
v -8 -36 0
v -10 -38 0
v -12 -38 0
v -12 -36 0
v -10 -36 0

# Texture cooridinates (Count = 4)
vt 0.03125 0.875
vt 0.0625 0.875
vt 0.0625 0.90625
vt 0.03125 0.90625

# Normal
vn 0 0 -1

# Mesh description
g grave20_mesh_0005

# Faces
f 1/1/1 2/2/1 3/3/1 4/4/1
f 5/1/1 6/2/1 7/3/1 8/4/1
f 9/1/1 10/2/1 11/3/1 12/4/1
f 13/1/1 14/2/1 15/3/1 16/4/1
f 17/1/1 18/2/1 19/3/1 20/4/1
f 21/1/1 22/2/1 23/3/1 24/4/1
f 25/1/1 26/2/1 27/3/1 28/4/1
f 29/1/1 30/2/1 31/3/1 32/4/1
f 33/1/1 34/2/1 35/3/1 36/4/1
f 37/1/1 38/2/1 39/3/1 40/4/1

