# Tiled2Unity generated file. Do not modify by hand.
# Wavefront file for 'grave20_mesh_0004.obj'

# Vertices (Count = 288)
v 0 -4 0
v -2 -4 0
v -2 -2 0
v 0 -2 0
v -2 -4 0
v -4 -4 0
v -4 -2 0
v -2 -2 0
v -4 -4 0
v -6 -4 0
v -6 -2 0
v -4 -2 0
v -6 -4 0
v -8 -4 0
v -8 -2 0
v -6 -2 0
v -24 -4 0
v -26 -4 0
v -26 -2 0
v -24 -2 0
v -26 -4 0
v -28 -4 0
v -28 -2 0
v -26 -2 0
v -28 -4 0
v -30 -4 0
v -30 -2 0
v -28 -2 0
v -30 -4 0
v -32 -4 0
v -32 -2 0
v -30 -2 0
v -32 -4 0
v -34 -4 0
v -34 -2 0
v -32 -2 0
v -34 -4 0
v -36 -4 0
v -36 -2 0
v -34 -2 0
v -36 -4 0
v -38 -4 0
v -38 -2 0
v -36 -2 0
v -38 -4 0
v -40 -4 0
v -40 -2 0
v -38 -2 0
v -34 -6 0
v -36 -6 0
v -36 -4 0
v -34 -4 0
v -34 -8 0
v -36 -8 0
v -36 -6 0
v -34 -6 0
v -34 -10 0
v -36 -10 0
v -36 -8 0
v -34 -8 0
v -34 -12 0
v -36 -12 0
v -36 -10 0
v -34 -10 0
v -34 -14 0
v -36 -14 0
v -36 -12 0
v -34 -12 0
v -34 -16 0
v -36 -16 0
v -36 -14 0
v -34 -14 0
v -34 -18 0
v -36 -18 0
v -36 -16 0
v -34 -16 0
v -34 -20 0
v -36 -20 0
v -36 -18 0
v -34 -18 0
v -34 -22 0
v -36 -22 0
v -36 -20 0
v -34 -20 0
v -30 -24 0
v -32 -24 0
v -32 -22 0
v -30 -22 0
v -34 -24 0
v -36 -24 0
v -36 -22 0
v -34 -22 0
v 0 -26 0
v -2 -26 0
v -2 -24 0
v 0 -24 0
v -2 -26 0
v -4 -26 0
v -4 -24 0
v -2 -24 0
v -4 -26 0
v -6 -26 0
v -6 -24 0
v -4 -24 0
v -6 -26 0
v -8 -26 0
v -8 -24 0
v -6 -24 0
v -8 -26 0
v -10 -26 0
v -10 -24 0
v -8 -24 0
v -10 -26 0
v -12 -26 0
v -12 -24 0
v -10 -24 0
v -12 -26 0
v -14 -26 0
v -14 -24 0
v -12 -24 0
v -14 -26 0
v -16 -26 0
v -16 -24 0
v -14 -24 0
v -16 -26 0
v -18 -26 0
v -18 -24 0
v -16 -24 0
v -18 -26 0
v -20 -26 0
v -20 -24 0
v -18 -24 0
v -20 -26 0
v -22 -26 0
v -22 -24 0
v -20 -24 0
v -22 -26 0
v -24 -26 0
v -24 -24 0
v -22 -24 0
v -24 -26 0
v -26 -26 0
v -26 -24 0
v -24 -24 0
v -26 -26 0
v -28 -26 0
v -28 -24 0
v -26 -24 0
v -28 -26 0
v -30 -26 0
v -30 -24 0
v -28 -24 0
v -30 -26 0
v -32 -26 0
v -32 -24 0
v -30 -24 0
v -32 -26 0
v -34 -26 0
v -34 -24 0
v -32 -24 0
v -34 -26 0
v -36 -26 0
v -36 -24 0
v -34 -24 0
v 0 -36 0
v -2 -36 0
v -2 -34 0
v 0 -34 0
v -2 -36 0
v -4 -36 0
v -4 -34 0
v -2 -34 0
v -4 -36 0
v -6 -36 0
v -6 -34 0
v -4 -34 0
v -6 -36 0
v -8 -36 0
v -8 -34 0
v -6 -34 0
v -8 -36 0
v -10 -36 0
v -10 -34 0
v -8 -34 0
v -10 -36 0
v -12 -36 0
v -12 -34 0
v -10 -34 0
v -12 -36 0
v -14 -36 0
v -14 -34 0
v -12 -34 0
v -14 -36 0
v -16 -36 0
v -16 -34 0
v -14 -34 0
v -16 -36 0
v -18 -36 0
v -18 -34 0
v -16 -34 0
v -18 -36 0
v -20 -36 0
v -20 -34 0
v -18 -34 0
v -20 -36 0
v -22 -36 0
v -22 -34 0
v -20 -34 0
v -22 -36 0
v -24 -36 0
v -24 -34 0
v -22 -34 0
v -24 -36 0
v -26 -36 0
v -26 -34 0
v -24 -34 0
v -26 -36 0
v -28 -36 0
v -28 -34 0
v -26 -34 0
v -28 -36 0
v -30 -36 0
v -30 -34 0
v -28 -34 0
v 0 -38 0
v -2 -38 0
v -2 -36 0
v 0 -36 0
v -2 -38 0
v -4 -38 0
v -4 -36 0
v -2 -36 0
v -4 -38 0
v -6 -38 0
v -6 -36 0
v -4 -36 0
v -6 -38 0
v -8 -38 0
v -8 -36 0
v -6 -36 0
v -8 -38 0
v -10 -38 0
v -10 -36 0
v -8 -36 0
v -10 -38 0
v -12 -38 0
v -12 -36 0
v -10 -36 0
v -12 -38 0
v -14 -38 0
v -14 -36 0
v -12 -36 0
v -14 -38 0
v -16 -38 0
v -16 -36 0
v -14 -36 0
v -16 -38 0
v -18 -38 0
v -18 -36 0
v -16 -36 0
v -18 -38 0
v -20 -38 0
v -20 -36 0
v -18 -36 0
v -20 -38 0
v -22 -38 0
v -22 -36 0
v -20 -36 0
v -22 -38 0
v -24 -38 0
v -24 -36 0
v -22 -36 0
v -24 -38 0
v -26 -38 0
v -26 -36 0
v -24 -36 0
v -26 -38 0
v -28 -38 0
v -28 -36 0
v -26 -36 0
v -28 -38 0
v -30 -38 0
v -30 -36 0
v -28 -36 0
v -28 -40 0
v -30 -40 0
v -30 -38 0
v -28 -38 0

# Texture cooridinates (Count = 23)
vt 0.03125 0.875
vt 0.0625 0.875
vt 0.0625 0.90625
vt 0.03125 0.90625
vt 0.09375 0.875
vt 0.09375 0.90625
vt 0 0.3125
vt 0.03125 0.3125
vt 0.03125 0.34375
vt 0 0.34375
vt 0.03125 0.84375
vt 0.0625 0.84375
vt 0 0.28125
vt 0.03125 0.28125
vt 0.09375 0.84375
vt 0.0625 0.9375
vt 0.03125 0.9375
vt 0 0.96875
vt 0.03125 0.96875
vt 0.03125 1
vt 0 1
vt 0.09375 0.9375
vt 0 0.9375

# Normal
vn 0 0 -1

# Mesh description
g grave20_mesh_0004

# Faces
f 1/1/1 2/2/1 3/3/1 4/4/1
f 5/1/1 6/2/1 7/3/1 8/4/1
f 9/1/1 10/2/1 11/3/1 12/4/1
f 13/1/1 14/2/1 15/3/1 16/4/1
f 17/1/1 18/2/1 19/3/1 20/4/1
f 21/1/1 22/2/1 23/3/1 24/4/1
f 25/1/1 26/2/1 27/3/1 28/4/1
f 29/1/1 30/2/1 31/3/1 32/4/1
f 33/1/1 34/2/1 35/3/1 36/4/1
f 37/1/1 38/2/1 39/3/1 40/4/1
f 41/1/1 42/2/1 43/3/1 44/4/1
f 45/1/1 46/2/1 47/3/1 48/4/1
f 49/2/1 50/5/1 51/6/1 52/3/1
f 53/2/1 54/5/1 55/6/1 56/3/1
f 57/2/1 58/5/1 59/6/1 60/3/1
f 61/2/1 62/5/1 63/6/1 64/3/1
f 65/2/1 66/5/1 67/6/1 68/3/1
f 69/2/1 70/5/1 71/6/1 72/3/1
f 73/2/1 74/5/1 75/6/1 76/3/1
f 77/2/1 78/5/1 79/6/1 80/3/1
f 81/2/1 82/5/1 83/6/1 84/3/1
f 85/7/1 86/8/1 87/9/1 88/10/1
f 89/2/1 90/5/1 91/6/1 92/3/1
f 93/11/1 94/12/1 95/2/1 96/1/1
f 97/11/1 98/12/1 99/2/1 100/1/1
f 101/11/1 102/12/1 103/2/1 104/1/1
f 105/11/1 106/12/1 107/2/1 108/1/1
f 109/11/1 110/12/1 111/2/1 112/1/1
f 113/11/1 114/12/1 115/2/1 116/1/1
f 117/11/1 118/12/1 119/2/1 120/1/1
f 121/11/1 122/12/1 123/2/1 124/1/1
f 125/11/1 126/12/1 127/2/1 128/1/1
f 129/11/1 130/12/1 131/2/1 132/1/1
f 133/11/1 134/12/1 135/2/1 136/1/1
f 137/11/1 138/12/1 139/2/1 140/1/1
f 141/11/1 142/12/1 143/2/1 144/1/1
f 145/11/1 146/12/1 147/2/1 148/1/1
f 149/11/1 150/12/1 151/2/1 152/1/1
f 153/13/1 154/14/1 155/8/1 156/7/1
f 157/11/1 158/12/1 159/2/1 160/1/1
f 161/12/1 162/15/1 163/5/1 164/2/1
f 165/4/1 166/3/1 167/16/1 168/17/1
f 169/4/1 170/3/1 171/16/1 172/17/1
f 173/4/1 174/3/1 175/16/1 176/17/1
f 177/4/1 178/3/1 179/16/1 180/17/1
f 181/4/1 182/3/1 183/16/1 184/17/1
f 185/4/1 186/3/1 187/16/1 188/17/1
f 189/4/1 190/3/1 191/16/1 192/17/1
f 193/4/1 194/3/1 195/16/1 196/17/1
f 197/4/1 198/3/1 199/16/1 200/17/1
f 201/4/1 202/3/1 203/16/1 204/17/1
f 205/4/1 206/3/1 207/16/1 208/17/1
f 209/4/1 210/3/1 211/16/1 212/17/1
f 213/18/1 214/19/1 215/20/1 216/21/1
f 217/4/1 218/3/1 219/16/1 220/17/1
f 221/3/1 222/6/1 223/22/1 224/16/1
f 225/1/1 226/2/1 227/3/1 228/4/1
f 229/1/1 230/2/1 231/3/1 232/4/1
f 233/1/1 234/2/1 235/3/1 236/4/1
f 237/1/1 238/2/1 239/3/1 240/4/1
f 241/1/1 242/2/1 243/3/1 244/4/1
f 245/1/1 246/2/1 247/3/1 248/4/1
f 249/1/1 250/2/1 251/3/1 252/4/1
f 253/1/1 254/2/1 255/3/1 256/4/1
f 257/1/1 258/2/1 259/3/1 260/4/1
f 261/1/1 262/2/1 263/3/1 264/4/1
f 265/1/1 266/2/1 267/3/1 268/4/1
f 269/1/1 270/2/1 271/3/1 272/4/1
f 273/23/1 274/17/1 275/19/1 276/18/1
f 277/1/1 278/2/1 279/3/1 280/4/1
f 281/2/1 282/5/1 283/6/1 284/3/1
f 285/2/1 286/5/1 287/6/1 288/3/1

