# Tiled2Unity generated file. Do not modify by hand.
# Wavefront file for 'grave20_mesh_0003.obj'

# Vertices (Count = 500)
v 0 -2 0
v -2 -2 0
v -2 0 0
v 0 0 0
v -2 -2 0
v -4 -2 0
v -4 0 0
v -2 0 0
v -4 -2 0
v -6 -2 0
v -6 0 0
v -4 0 0
v -6 -2 0
v -8 -2 0
v -8 0 0
v -6 0 0
v -8 -2 0
v -10 -2 0
v -10 0 0
v -8 0 0
v -10 -2 0
v -12 -2 0
v -12 0 0
v -10 0 0
v -12 -2 0
v -14 -2 0
v -14 0 0
v -12 0 0
v -14 -2 0
v -16 -2 0
v -16 0 0
v -14 0 0
v -16 -2 0
v -18 -2 0
v -18 0 0
v -16 0 0
v -18 -2 0
v -20 -2 0
v -20 0 0
v -18 0 0
v -20 -2 0
v -22 -2 0
v -22 0 0
v -20 0 0
v -22 -2 0
v -24 -2 0
v -24 0 0
v -22 0 0
v -24 -2 0
v -26 -2 0
v -26 0 0
v -24 0 0
v -26 -2 0
v -28 -2 0
v -28 0 0
v -26 0 0
v -28 -2 0
v -30 -2 0
v -30 0 0
v -28 0 0
v -30 -2 0
v -32 -2 0
v -32 0 0
v -30 0 0
v -32 -2 0
v -34 -2 0
v -34 0 0
v -32 0 0
v -34 -2 0
v -36 -2 0
v -36 0 0
v -34 0 0
v -36 -2 0
v -38 -2 0
v -38 0 0
v -36 0 0
v -38 -2 0
v -40 -2 0
v -40 0 0
v -38 0 0
v -30 -8 0
v -32 -8 0
v -32 -6 0
v -30 -6 0
v -32 -8 0
v -34 -8 0
v -34 -6 0
v -32 -6 0
v -12 -10 0
v -14 -10 0
v -14 -8 0
v -12 -8 0
v -14 -10 0
v -16 -10 0
v -16 -8 0
v -14 -8 0
v -30 -10 0
v -32 -10 0
v -32 -8 0
v -30 -8 0
v -32 -10 0
v -34 -10 0
v -34 -8 0
v -32 -8 0
v -36 -10 0
v -38 -10 0
v -38 -8 0
v -36 -8 0
v -10 -12 0
v -12 -12 0
v -12 -10 0
v -10 -10 0
v -12 -12 0
v -14 -12 0
v -14 -10 0
v -12 -10 0
v -14 -12 0
v -16 -12 0
v -16 -10 0
v -14 -10 0
v -16 -12 0
v -18 -12 0
v -18 -10 0
v -16 -10 0
v -30 -12 0
v -32 -12 0
v -32 -10 0
v -30 -10 0
v -32 -12 0
v -34 -12 0
v -34 -10 0
v -32 -10 0
v -36 -12 0
v -38 -12 0
v -38 -10 0
v -36 -10 0
v -10 -14 0
v -12 -14 0
v -12 -12 0
v -10 -12 0
v -12 -14 0
v -14 -14 0
v -14 -12 0
v -12 -12 0
v -14 -14 0
v -16 -14 0
v -16 -12 0
v -14 -12 0
v -16 -14 0
v -18 -14 0
v -18 -12 0
v -16 -12 0
v -30 -14 0
v -32 -14 0
v -32 -12 0
v -30 -12 0
v -32 -14 0
v -34 -14 0
v -34 -12 0
v -32 -12 0
v -30 -16 0
v -32 -16 0
v -32 -14 0
v -30 -14 0
v -32 -16 0
v -34 -16 0
v -34 -14 0
v -32 -14 0
v -32 -18 0
v -34 -18 0
v -34 -16 0
v -32 -16 0
v -30 -20 0
v -32 -20 0
v -32 -18 0
v -30 -18 0
v -32 -20 0
v -34 -20 0
v -34 -18 0
v -32 -18 0
v -2 -22 0
v -4 -22 0
v -4 -20 0
v -2 -20 0
v -4 -22 0
v -6 -22 0
v -6 -20 0
v -4 -20 0
v -8 -22 0
v -10 -22 0
v -10 -20 0
v -8 -20 0
v -10 -22 0
v -12 -22 0
v -12 -20 0
v -10 -20 0
v -30 -22 0
v -32 -22 0
v -32 -20 0
v -30 -20 0
v -32 -22 0
v -34 -22 0
v -34 -20 0
v -32 -20 0
v -2 -24 0
v -4 -24 0
v -4 -22 0
v -2 -22 0
v -4 -24 0
v -6 -24 0
v -6 -22 0
v -4 -22 0
v -8 -24 0
v -10 -24 0
v -10 -22 0
v -8 -22 0
v -10 -24 0
v -12 -24 0
v -12 -22 0
v -10 -22 0
v -12 -24 0
v -14 -24 0
v -14 -22 0
v -12 -22 0
v -14 -24 0
v -16 -24 0
v -16 -22 0
v -14 -22 0
v -32 -24 0
v -34 -24 0
v -34 -22 0
v -32 -22 0
v -6 -28 0
v -8 -28 0
v -8 -26 0
v -6 -26 0
v -8 -28 0
v -10 -28 0
v -10 -26 0
v -8 -26 0
v -10 -28 0
v -12 -28 0
v -12 -26 0
v -10 -26 0
v -12 -28 0
v -14 -28 0
v -14 -26 0
v -12 -26 0
v -14 -28 0
v -16 -28 0
v -16 -26 0
v -14 -26 0
v -16 -28 0
v -18 -28 0
v -18 -26 0
v -16 -26 0
v -18 -28 0
v -20 -28 0
v -20 -26 0
v -18 -26 0
v -20 -28 0
v -22 -28 0
v -22 -26 0
v -20 -26 0
v -22 -28 0
v -24 -28 0
v -24 -26 0
v -22 -26 0
v -24 -28 0
v -26 -28 0
v -26 -26 0
v -24 -26 0
v -26 -28 0
v -28 -28 0
v -28 -26 0
v -26 -26 0
v -28 -28 0
v -30 -28 0
v -30 -26 0
v -28 -26 0
v -30 -28 0
v -32 -28 0
v -32 -26 0
v -30 -26 0
v -6 -30 0
v -8 -30 0
v -8 -28 0
v -6 -28 0
v -8 -30 0
v -10 -30 0
v -10 -28 0
v -8 -28 0
v -10 -30 0
v -12 -30 0
v -12 -28 0
v -10 -28 0
v -12 -30 0
v -14 -30 0
v -14 -28 0
v -12 -28 0
v -14 -30 0
v -16 -30 0
v -16 -28 0
v -14 -28 0
v -16 -30 0
v -18 -30 0
v -18 -28 0
v -16 -28 0
v -18 -30 0
v -20 -30 0
v -20 -28 0
v -18 -28 0
v -20 -30 0
v -22 -30 0
v -22 -28 0
v -20 -28 0
v -22 -30 0
v -24 -30 0
v -24 -28 0
v -22 -28 0
v -24 -30 0
v -26 -30 0
v -26 -28 0
v -24 -28 0
v -26 -30 0
v -28 -30 0
v -28 -28 0
v -26 -28 0
v -28 -30 0
v -30 -30 0
v -30 -28 0
v -28 -28 0
v -30 -30 0
v -32 -30 0
v -32 -28 0
v -30 -28 0
v -4 -32 0
v -6 -32 0
v -6 -30 0
v -4 -30 0
v -6 -32 0
v -8 -32 0
v -8 -30 0
v -6 -30 0
v -8 -32 0
v -10 -32 0
v -10 -30 0
v -8 -30 0
v -10 -32 0
v -12 -32 0
v -12 -30 0
v -10 -30 0
v -12 -32 0
v -14 -32 0
v -14 -30 0
v -12 -30 0
v -14 -32 0
v -16 -32 0
v -16 -30 0
v -14 -30 0
v -22 -32 0
v -24 -32 0
v -24 -30 0
v -22 -30 0
v -24 -32 0
v -26 -32 0
v -26 -30 0
v -24 -30 0
v -26 -32 0
v -28 -32 0
v -28 -30 0
v -26 -30 0
v -28 -32 0
v -30 -32 0
v -30 -30 0
v -28 -30 0
v -30 -32 0
v -32 -32 0
v -32 -30 0
v -30 -30 0
v -4 -34 0
v -6 -34 0
v -6 -32 0
v -4 -32 0
v -6 -34 0
v -8 -34 0
v -8 -32 0
v -6 -32 0
v -8 -34 0
v -10 -34 0
v -10 -32 0
v -8 -32 0
v -10 -34 0
v -12 -34 0
v -12 -32 0
v -10 -32 0
v -12 -34 0
v -14 -34 0
v -14 -32 0
v -12 -32 0
v -14 -34 0
v -16 -34 0
v -16 -32 0
v -14 -32 0
v -16 -34 0
v -18 -34 0
v -18 -32 0
v -16 -32 0
v -18 -34 0
v -20 -34 0
v -20 -32 0
v -18 -32 0
v -20 -34 0
v -22 -34 0
v -22 -32 0
v -20 -32 0
v -22 -34 0
v -24 -34 0
v -24 -32 0
v -22 -32 0
v -24 -34 0
v -26 -34 0
v -26 -32 0
v -24 -32 0
v -26 -34 0
v -28 -34 0
v -28 -32 0
v -26 -32 0
v -28 -34 0
v -30 -34 0
v -30 -32 0
v -28 -32 0
v -2 -40 0
v -4 -40 0
v -4 -38 0
v -2 -38 0
v -4 -40 0
v -6 -40 0
v -6 -38 0
v -4 -38 0
v -8 -40 0
v -10 -40 0
v -10 -38 0
v -8 -38 0
v -10 -40 0
v -12 -40 0
v -12 -38 0
v -10 -38 0
v -12 -40 0
v -14 -40 0
v -14 -38 0
v -12 -38 0
v -14 -40 0
v -16 -40 0
v -16 -38 0
v -14 -38 0
v -16 -40 0
v -18 -40 0
v -18 -38 0
v -16 -38 0
v -18 -40 0
v -20 -40 0
v -20 -38 0
v -18 -38 0
v -20 -40 0
v -22 -40 0
v -22 -38 0
v -20 -38 0
v -22 -40 0
v -24 -40 0
v -24 -38 0
v -22 -38 0
v -24 -40 0
v -26 -40 0
v -26 -38 0
v -24 -38 0
v -26 -40 0
v -28 -40 0
v -28 -38 0
v -26 -38 0
v -30 -40 0
v -32 -40 0
v -32 -38 0
v -30 -38 0
v -32 -40 0
v -34 -40 0
v -34 -38 0
v -32 -38 0
v -34 -40 0
v -36 -40 0
v -36 -38 0
v -34 -38 0
v -36 -40 0
v -38 -40 0
v -38 -38 0
v -36 -38 0
v -38 -40 0
v -40 -40 0
v -40 -38 0
v -38 -38 0

# Texture cooridinates (Count = 19)
vt 0.03125 0.6875
vt 0.0625 0.6875
vt 0.0625 0.71875
vt 0.03125 0.71875
vt 0.125 0.6875
vt 0.15625 0.6875
vt 0.15625 0.71875
vt 0.125 0.71875
vt 0.09375 0.6875
vt 0.09375 0.71875
vt 0.0625 0.78125
vt 0.09375 0.78125
vt 0.09375 0.8125
vt 0.0625 0.8125
vt 0.125 0.78125
vt 0.125 0.8125
vt 0.0625 0.75
vt 0.09375 0.75
vt 0.125 0.75

# Normal
vn 0 0 -1

# Mesh description
g grave20_mesh_0003

# Faces
f 1/1/1 2/2/1 3/3/1 4/4/1
f 5/5/1 6/6/1 7/7/1 8/8/1
f 9/5/1 10/6/1 11/7/1 12/8/1
f 13/2/1 14/9/1 15/10/1 16/3/1
f 17/9/1 18/5/1 19/8/1 20/10/1
f 21/5/1 22/6/1 23/7/1 24/8/1
f 25/5/1 26/6/1 27/7/1 28/8/1
f 29/2/1 30/9/1 31/10/1 32/3/1
f 33/9/1 34/5/1 35/8/1 36/10/1
f 37/5/1 38/6/1 39/7/1 40/8/1
f 41/9/1 42/5/1 43/8/1 44/10/1
f 45/5/1 46/6/1 47/7/1 48/8/1
f 49/5/1 50/6/1 51/7/1 52/8/1
f 53/2/1 54/9/1 55/10/1 56/3/1
f 57/9/1 58/5/1 59/8/1 60/10/1
f 61/5/1 62/6/1 63/7/1 64/8/1
f 65/2/1 66/9/1 67/10/1 68/3/1
f 69/9/1 70/5/1 71/8/1 72/10/1
f 73/5/1 74/6/1 75/7/1 76/8/1
f 77/5/1 78/6/1 79/7/1 80/8/1
f 81/11/1 82/12/1 83/13/1 84/14/1
f 85/11/1 86/12/1 87/13/1 88/14/1
f 89/11/1 90/12/1 91/13/1 92/14/1
f 93/12/1 94/15/1 95/16/1 96/13/1
f 97/17/1 98/18/1 99/12/1 100/11/1
f 101/11/1 102/12/1 103/13/1 104/14/1
f 105/12/1 106/15/1 107/16/1 108/13/1
f 109/11/1 110/12/1 111/13/1 112/14/1
f 113/11/1 114/12/1 115/13/1 116/14/1
f 117/12/1 118/15/1 119/16/1 120/13/1
f 121/12/1 122/15/1 123/16/1 124/13/1
f 125/17/1 126/18/1 127/12/1 128/11/1
f 129/17/1 130/18/1 131/12/1 132/11/1
f 133/18/1 134/19/1 135/15/1 136/12/1
f 137/17/1 138/18/1 139/12/1 140/11/1
f 141/17/1 142/18/1 143/12/1 144/11/1
f 145/18/1 146/19/1 147/15/1 148/12/1
f 149/18/1 150/19/1 151/15/1 152/12/1
f 153/17/1 154/18/1 155/12/1 156/11/1
f 157/18/1 158/19/1 159/15/1 160/12/1
f 161/17/1 162/18/1 163/12/1 164/11/1
f 165/18/1 166/19/1 167/15/1 168/12/1
f 169/17/1 170/18/1 171/12/1 172/11/1
f 173/11/1 174/12/1 175/13/1 176/14/1
f 177/17/1 178/18/1 179/12/1 180/11/1
f 181/11/1 182/12/1 183/13/1 184/14/1
f 185/11/1 186/12/1 187/13/1 188/14/1
f 189/11/1 190/12/1 191/13/1 192/14/1
f 193/12/1 194/15/1 195/16/1 196/13/1
f 197/17/1 198/18/1 199/12/1 200/11/1
f 201/18/1 202/19/1 203/15/1 204/12/1
f 205/17/1 206/18/1 207/12/1 208/11/1
f 209/17/1 210/18/1 211/12/1 212/11/1
f 213/11/1 214/12/1 215/13/1 216/14/1
f 217/11/1 218/12/1 219/13/1 220/14/1
f 221/11/1 222/12/1 223/13/1 224/14/1
f 225/12/1 226/15/1 227/16/1 228/13/1
f 229/18/1 230/19/1 231/15/1 232/12/1
f 233/11/1 234/12/1 235/13/1 236/14/1
f 237/11/1 238/12/1 239/13/1 240/14/1
f 241/12/1 242/15/1 243/16/1 244/13/1
f 245/18/1 246/19/1 247/15/1 248/12/1
f 249/18/1 250/19/1 251/15/1 252/12/1
f 253/18/1 254/19/1 255/15/1 256/12/1
f 257/18/1 258/19/1 259/15/1 260/12/1
f 261/18/1 262/19/1 263/15/1 264/12/1
f 265/12/1 266/15/1 267/16/1 268/13/1
f 269/12/1 270/15/1 271/16/1 272/13/1
f 273/11/1 274/12/1 275/13/1 276/14/1
f 277/17/1 278/18/1 279/12/1 280/11/1
f 281/18/1 282/19/1 283/15/1 284/12/1
f 285/17/1 286/18/1 287/12/1 288/11/1
f 289/11/1 290/12/1 291/13/1 292/14/1
f 293/11/1 294/12/1 295/13/1 296/14/1
f 297/11/1 298/12/1 299/13/1 300/14/1
f 301/12/1 302/15/1 303/16/1 304/13/1
f 305/17/1 306/18/1 307/12/1 308/11/1
f 309/17/1 310/18/1 311/12/1 312/11/1
f 313/18/1 314/19/1 315/15/1 316/12/1
f 317/18/1 318/19/1 319/15/1 320/12/1
f 321/18/1 322/19/1 323/15/1 324/12/1
f 325/11/1 326/12/1 327/13/1 328/14/1
f 329/17/1 330/18/1 331/12/1 332/11/1
f 333/18/1 334/19/1 335/15/1 336/12/1
f 337/11/1 338/12/1 339/13/1 340/14/1
f 341/12/1 342/15/1 343/16/1 344/13/1
f 345/12/1 346/15/1 347/16/1 348/13/1
f 349/12/1 350/15/1 351/16/1 352/13/1
f 353/11/1 354/12/1 355/13/1 356/14/1
f 357/12/1 358/15/1 359/16/1 360/13/1
f 361/17/1 362/18/1 363/12/1 364/11/1
f 365/11/1 366/12/1 367/13/1 368/14/1
f 369/17/1 370/18/1 371/12/1 372/11/1
f 373/17/1 374/18/1 375/12/1 376/11/1
f 377/18/1 378/19/1 379/15/1 380/12/1
f 381/11/1 382/12/1 383/13/1 384/14/1
f 385/11/1 386/12/1 387/13/1 388/14/1
f 389/11/1 390/12/1 391/13/1 392/14/1
f 393/11/1 394/12/1 395/13/1 396/14/1
f 397/11/1 398/12/1 399/13/1 400/14/1
f 401/11/1 402/12/1 403/13/1 404/14/1
f 405/11/1 406/12/1 407/13/1 408/14/1
f 409/11/1 410/12/1 411/13/1 412/14/1
f 413/11/1 414/12/1 415/13/1 416/14/1
f 417/11/1 418/12/1 419/13/1 420/14/1
f 421/17/1 422/18/1 423/12/1 424/11/1
f 425/17/1 426/18/1 427/12/1 428/11/1
f 429/18/1 430/19/1 431/15/1 432/12/1
f 433/11/1 434/12/1 435/13/1 436/14/1
f 437/12/1 438/15/1 439/16/1 440/13/1
f 441/12/1 442/15/1 443/16/1 444/13/1
f 445/12/1 446/15/1 447/16/1 448/13/1
f 449/12/1 450/15/1 451/16/1 452/13/1
f 453/12/1 454/15/1 455/16/1 456/13/1
f 457/12/1 458/15/1 459/16/1 460/13/1
f 461/12/1 462/15/1 463/16/1 464/13/1
f 465/12/1 466/15/1 467/16/1 468/13/1
f 469/12/1 470/15/1 471/16/1 472/13/1
f 473/12/1 474/15/1 475/16/1 476/13/1
f 477/12/1 478/15/1 479/16/1 480/13/1
f 481/18/1 482/19/1 483/15/1 484/12/1
f 485/18/1 486/19/1 487/15/1 488/12/1
f 489/18/1 490/19/1 491/15/1 492/12/1
f 493/18/1 494/19/1 495/15/1 496/12/1
f 497/18/1 498/19/1 499/15/1 500/12/1

