# Tiled2Unity generated file. Do not modify by hand.
# Wavefront file for 'grave12_mesh_0006.obj'

# Vertices (Count = 24)
v -10 -22 0
v -12 -22 0
v -12 -20 0
v -10 -20 0
v -12 -22 0
v -14 -22 0
v -14 -20 0
v -12 -20 0
v -14 -22 0
v -16 -22 0
v -16 -20 0
v -14 -20 0
v -10 -24 0
v -12 -24 0
v -12 -22 0
v -10 -22 0
v -12 -24 0
v -14 -24 0
v -14 -22 0
v -12 -22 0
v -14 -24 0
v -16 -24 0
v -16 -22 0
v -14 -22 0

# Texture cooridinates (Count = 6)
vt 0.4375 0.625
vt 0.46875 0.625
vt 0.46875 0.65625
vt 0.4375 0.65625
vt 0.4375 0.59375
vt 0.46875 0.59375

# Normal
vn 0 0 -1

# Mesh description
g grave12_mesh_0006

# Faces
f 1/1/1 2/2/1 3/3/1 4/4/1
f 5/1/1 6/2/1 7/3/1 8/4/1
f 9/1/1 10/2/1 11/3/1 12/4/1
f 13/5/1 14/6/1 15/2/1 16/1/1
f 17/5/1 18/6/1 19/2/1 20/1/1
f 21/5/1 22/6/1 23/2/1 24/1/1

