# Tiled2Unity generated file. Do not modify by hand.
# Wavefront file for 'grave12_mesh_0002.obj'

# Vertices (Count = 72)
v -6 -38 0
v -8 -38 0
v -8 -36 0
v -6 -36 0
v -8 -38 0
v -10 -38 0
v -10 -36 0
v -8 -36 0
v -10 -38 0
v -12 -38 0
v -12 -36 0
v -10 -36 0
v -12 -38 0
v -14 -38 0
v -14 -36 0
v -12 -36 0
v -14 -38 0
v -16 -38 0
v -16 -36 0
v -14 -36 0
v -16 -38 0
v -18 -38 0
v -18 -36 0
v -16 -36 0
v -18 -38 0
v -20 -38 0
v -20 -36 0
v -18 -36 0
v -20 -38 0
v -22 -38 0
v -22 -36 0
v -20 -36 0
v -22 -38 0
v -24 -38 0
v -24 -36 0
v -22 -36 0
v -24 -38 0
v -26 -38 0
v -26 -36 0
v -24 -36 0
v -26 -38 0
v -28 -38 0
v -28 -36 0
v -26 -36 0
v -28 -38 0
v -30 -38 0
v -30 -36 0
v -28 -36 0
v -30 -38 0
v -32 -38 0
v -32 -36 0
v -30 -36 0
v -32 -38 0
v -34 -38 0
v -34 -36 0
v -32 -36 0
v -34 -38 0
v -36 -38 0
v -36 -36 0
v -34 -36 0
v -36 -38 0
v -38 -38 0
v -38 -36 0
v -36 -36 0
v -38 -38 0
v -40 -38 0
v -40 -36 0
v -38 -36 0
v -6 -40 0
v -8 -40 0
v -8 -38 0
v -6 -38 0

# Texture cooridinates (Count = 6)
vt 0 0.84375
vt 0.03125 0.84375
vt 0.03125 0.875
vt 0 0.875
vt 0.0625 0.84375
vt 0.0625 0.875

# Normal
vn 0 0 -1

# Mesh description
g grave12_mesh_0002

# Faces
f 1/1/1 2/2/1 3/3/1 4/4/1
f 5/2/1 6/5/1 7/6/1 8/3/1
f 9/2/1 10/5/1 11/6/1 12/3/1
f 13/2/1 14/5/1 15/6/1 16/3/1
f 17/2/1 18/5/1 19/6/1 20/3/1
f 21/2/1 22/5/1 23/6/1 24/3/1
f 25/2/1 26/5/1 27/6/1 28/3/1
f 29/2/1 30/5/1 31/6/1 32/3/1
f 33/2/1 34/5/1 35/6/1 36/3/1
f 37/2/1 38/5/1 39/6/1 40/3/1
f 41/2/1 42/5/1 43/6/1 44/3/1
f 45/2/1 46/5/1 47/6/1 48/3/1
f 49/2/1 50/5/1 51/6/1 52/3/1
f 53/2/1 54/5/1 55/6/1 56/3/1
f 57/2/1 58/5/1 59/6/1 60/3/1
f 61/2/1 62/5/1 63/6/1 64/3/1
f 65/2/1 66/5/1 67/6/1 68/3/1
f 69/1/1 70/2/1 71/3/1 72/4/1

