# Tiled2Unity generated file. Do not modify by hand.
# Wavefront file for 'grave02_mesh_0003.obj'

# Vertices (Count = 624)
v 0 -2 0
v -2 -2 0
v -2 0 0
v 0 0 0
v -2 -2 0
v -4 -2 0
v -4 0 0
v -2 0 0
v -4 -2 0
v -6 -2 0
v -6 0 0
v -4 0 0
v -26 -2 0
v -28 -2 0
v -28 0 0
v -26 0 0
v -30 -2 0
v -32 -2 0
v -32 0 0
v -30 0 0
v -32 -2 0
v -34 -2 0
v -34 0 0
v -32 0 0
v -34 -2 0
v -36 -2 0
v -36 0 0
v -34 0 0
v -36 -2 0
v -38 -2 0
v -38 0 0
v -36 0 0
v -38 -2 0
v -40 -2 0
v -40 0 0
v -38 0 0
v 0 -4 0
v -2 -4 0
v -2 -2 0
v 0 -2 0
v -16 -4 0
v -18 -4 0
v -18 -2 0
v -16 -2 0
v -18 -4 0
v -20 -4 0
v -20 -2 0
v -18 -2 0
v -30 -4 0
v -32 -4 0
v -32 -2 0
v -30 -2 0
v -32 -4 0
v -34 -4 0
v -34 -2 0
v -32 -2 0
v -34 -4 0
v -36 -4 0
v -36 -2 0
v -34 -2 0
v -36 -4 0
v -38 -4 0
v -38 -2 0
v -36 -2 0
v -38 -4 0
v -40 -4 0
v -40 -2 0
v -38 -2 0
v 0 -6 0
v -2 -6 0
v -2 -4 0
v 0 -4 0
v -2 -6 0
v -4 -6 0
v -4 -4 0
v -2 -4 0
v -4 -6 0
v -6 -6 0
v -6 -4 0
v -4 -4 0
v 0 -8 0
v -2 -8 0
v -2 -6 0
v 0 -6 0
v -2 -8 0
v -4 -8 0
v -4 -6 0
v -2 -6 0
v -4 -8 0
v -6 -8 0
v -6 -6 0
v -4 -6 0
v -30 -8 0
v -32 -8 0
v -32 -6 0
v -30 -6 0
v -32 -8 0
v -34 -8 0
v -34 -6 0
v -32 -6 0
v -34 -8 0
v -36 -8 0
v -36 -6 0
v -34 -6 0
v 0 -10 0
v -2 -10 0
v -2 -8 0
v 0 -8 0
v -12 -10 0
v -14 -10 0
v -14 -8 0
v -12 -8 0
v -14 -10 0
v -16 -10 0
v -16 -8 0
v -14 -8 0
v -30 -10 0
v -32 -10 0
v -32 -8 0
v -30 -8 0
v -32 -10 0
v -34 -10 0
v -34 -8 0
v -32 -8 0
v -34 -10 0
v -36 -10 0
v -36 -8 0
v -34 -8 0
v -36 -10 0
v -38 -10 0
v -38 -8 0
v -36 -8 0
v 0 -12 0
v -2 -12 0
v -2 -10 0
v 0 -10 0
v -10 -12 0
v -12 -12 0
v -12 -10 0
v -10 -10 0
v -12 -12 0
v -14 -12 0
v -14 -10 0
v -12 -10 0
v -14 -12 0
v -16 -12 0
v -16 -10 0
v -14 -10 0
v -16 -12 0
v -18 -12 0
v -18 -10 0
v -16 -10 0
v -30 -12 0
v -32 -12 0
v -32 -10 0
v -30 -10 0
v -32 -12 0
v -34 -12 0
v -34 -10 0
v -32 -10 0
v -34 -12 0
v -36 -12 0
v -36 -10 0
v -34 -10 0
v -36 -12 0
v -38 -12 0
v -38 -10 0
v -36 -10 0
v 0 -14 0
v -2 -14 0
v -2 -12 0
v 0 -12 0
v -10 -14 0
v -12 -14 0
v -12 -12 0
v -10 -12 0
v -12 -14 0
v -14 -14 0
v -14 -12 0
v -12 -12 0
v -14 -14 0
v -16 -14 0
v -16 -12 0
v -14 -12 0
v -16 -14 0
v -18 -14 0
v -18 -12 0
v -16 -12 0
v -30 -14 0
v -32 -14 0
v -32 -12 0
v -30 -12 0
v -32 -14 0
v -34 -14 0
v -34 -12 0
v -32 -12 0
v -34 -14 0
v -36 -14 0
v -36 -12 0
v -34 -12 0
v 0 -16 0
v -2 -16 0
v -2 -14 0
v 0 -14 0
v -30 -16 0
v -32 -16 0
v -32 -14 0
v -30 -14 0
v -32 -16 0
v -34 -16 0
v -34 -14 0
v -32 -14 0
v -34 -16 0
v -36 -16 0
v -36 -14 0
v -34 -14 0
v 0 -18 0
v -2 -18 0
v -2 -16 0
v 0 -16 0
v -32 -18 0
v -34 -18 0
v -34 -16 0
v -32 -16 0
v -34 -18 0
v -36 -18 0
v -36 -16 0
v -34 -16 0
v 0 -20 0
v -2 -20 0
v -2 -18 0
v 0 -18 0
v -30 -20 0
v -32 -20 0
v -32 -18 0
v -30 -18 0
v -32 -20 0
v -34 -20 0
v -34 -18 0
v -32 -18 0
v -34 -20 0
v -36 -20 0
v -36 -18 0
v -34 -18 0
v 0 -22 0
v -2 -22 0
v -2 -20 0
v 0 -20 0
v -2 -22 0
v -4 -22 0
v -4 -20 0
v -2 -20 0
v -4 -22 0
v -6 -22 0
v -6 -20 0
v -4 -20 0
v -30 -22 0
v -32 -22 0
v -32 -20 0
v -30 -20 0
v -32 -22 0
v -34 -22 0
v -34 -20 0
v -32 -20 0
v 0 -24 0
v -2 -24 0
v -2 -22 0
v 0 -22 0
v -2 -24 0
v -4 -24 0
v -4 -22 0
v -2 -22 0
v -4 -24 0
v -6 -24 0
v -6 -22 0
v -4 -22 0
v -8 -24 0
v -10 -24 0
v -10 -22 0
v -8 -22 0
v -10 -24 0
v -12 -24 0
v -12 -22 0
v -10 -22 0
v -12 -24 0
v -14 -24 0
v -14 -22 0
v -12 -22 0
v -14 -24 0
v -16 -24 0
v -16 -22 0
v -14 -22 0
v -30 -24 0
v -32 -24 0
v -32 -22 0
v -30 -22 0
v -32 -24 0
v -34 -24 0
v -34 -22 0
v -32 -22 0
v 0 -26 0
v -2 -26 0
v -2 -24 0
v 0 -24 0
v -8 -26 0
v -10 -26 0
v -10 -24 0
v -8 -24 0
v -10 -26 0
v -12 -26 0
v -12 -24 0
v -10 -24 0
v -12 -26 0
v -14 -26 0
v -14 -24 0
v -12 -24 0
v -14 -26 0
v -16 -26 0
v -16 -24 0
v -14 -24 0
v -16 -26 0
v -18 -26 0
v -18 -24 0
v -16 -24 0
v -18 -26 0
v -20 -26 0
v -20 -24 0
v -18 -24 0
v -20 -26 0
v -22 -26 0
v -22 -24 0
v -20 -24 0
v -26 -26 0
v -28 -26 0
v -28 -24 0
v -26 -24 0
v -30 -26 0
v -32 -26 0
v -32 -24 0
v -30 -24 0
v -32 -26 0
v -34 -26 0
v -34 -24 0
v -32 -24 0
v 0 -28 0
v -2 -28 0
v -2 -26 0
v 0 -26 0
v -8 -28 0
v -10 -28 0
v -10 -26 0
v -8 -26 0
v -10 -28 0
v -12 -28 0
v -12 -26 0
v -10 -26 0
v -12 -28 0
v -14 -28 0
v -14 -26 0
v -12 -26 0
v -14 -28 0
v -16 -28 0
v -16 -26 0
v -14 -26 0
v -16 -28 0
v -18 -28 0
v -18 -26 0
v -16 -26 0
v -18 -28 0
v -20 -28 0
v -20 -26 0
v -18 -26 0
v -20 -28 0
v -22 -28 0
v -22 -26 0
v -20 -26 0
v -22 -28 0
v -24 -28 0
v -24 -26 0
v -22 -26 0
v -24 -28 0
v -26 -28 0
v -26 -26 0
v -24 -26 0
v -26 -28 0
v -28 -28 0
v -28 -26 0
v -26 -26 0
v -30 -28 0
v -32 -28 0
v -32 -26 0
v -30 -26 0
v 0 -30 0
v -2 -30 0
v -2 -28 0
v 0 -28 0
v -8 -30 0
v -10 -30 0
v -10 -28 0
v -8 -28 0
v -10 -30 0
v -12 -30 0
v -12 -28 0
v -10 -28 0
v -12 -30 0
v -14 -30 0
v -14 -28 0
v -12 -28 0
v -14 -30 0
v -16 -30 0
v -16 -28 0
v -14 -28 0
v -16 -30 0
v -18 -30 0
v -18 -28 0
v -16 -28 0
v -18 -30 0
v -20 -30 0
v -20 -28 0
v -18 -28 0
v -20 -30 0
v -22 -30 0
v -22 -28 0
v -20 -28 0
v -22 -30 0
v -24 -30 0
v -24 -28 0
v -22 -28 0
v -24 -30 0
v -26 -30 0
v -26 -28 0
v -24 -28 0
v -26 -30 0
v -28 -30 0
v -28 -28 0
v -26 -28 0
v -30 -30 0
v -32 -30 0
v -32 -28 0
v -30 -28 0
v 0 -32 0
v -2 -32 0
v -2 -30 0
v 0 -30 0
v -4 -32 0
v -6 -32 0
v -6 -30 0
v -4 -30 0
v -8 -32 0
v -10 -32 0
v -10 -30 0
v -8 -30 0
v -10 -32 0
v -12 -32 0
v -12 -30 0
v -10 -30 0
v -12 -32 0
v -14 -32 0
v -14 -30 0
v -12 -30 0
v -14 -32 0
v -16 -32 0
v -16 -30 0
v -14 -30 0
v -22 -32 0
v -24 -32 0
v -24 -30 0
v -22 -30 0
v -24 -32 0
v -26 -32 0
v -26 -30 0
v -24 -30 0
v -26 -32 0
v -28 -32 0
v -28 -30 0
v -26 -30 0
v -30 -32 0
v -32 -32 0
v -32 -30 0
v -30 -30 0
v 0 -34 0
v -2 -34 0
v -2 -32 0
v 0 -32 0
v -4 -34 0
v -6 -34 0
v -6 -32 0
v -4 -32 0
v -14 -34 0
v -16 -34 0
v -16 -32 0
v -14 -32 0
v -16 -34 0
v -18 -34 0
v -18 -32 0
v -16 -32 0
v -18 -34 0
v -20 -34 0
v -20 -32 0
v -18 -32 0
v -20 -34 0
v -22 -34 0
v -22 -32 0
v -20 -32 0
v -22 -34 0
v -24 -34 0
v -24 -32 0
v -22 -32 0
v -26 -34 0
v -28 -34 0
v -28 -32 0
v -26 -32 0
v 0 -36 0
v -2 -36 0
v -2 -34 0
v 0 -34 0
v -4 -36 0
v -6 -36 0
v -6 -34 0
v -4 -34 0
v 0 -38 0
v -2 -38 0
v -2 -36 0
v 0 -36 0
v -30 -38 0
v -32 -38 0
v -32 -36 0
v -30 -36 0
v -32 -38 0
v -34 -38 0
v -34 -36 0
v -32 -36 0
v -34 -38 0
v -36 -38 0
v -36 -36 0
v -34 -36 0
v -36 -38 0
v -38 -38 0
v -38 -36 0
v -36 -36 0
v -38 -38 0
v -40 -38 0
v -40 -36 0
v -38 -36 0
v 0 -40 0
v -2 -40 0
v -2 -38 0
v 0 -38 0
v -2 -40 0
v -4 -40 0
v -4 -38 0
v -2 -38 0
v -4 -40 0
v -6 -40 0
v -6 -38 0
v -4 -38 0
v -6 -40 0
v -8 -40 0
v -8 -38 0
v -6 -38 0
v -8 -40 0
v -10 -40 0
v -10 -38 0
v -8 -38 0
v -10 -40 0
v -12 -40 0
v -12 -38 0
v -10 -38 0
v -12 -40 0
v -14 -40 0
v -14 -38 0
v -12 -38 0
v -14 -40 0
v -16 -40 0
v -16 -38 0
v -14 -38 0
v -16 -40 0
v -18 -40 0
v -18 -38 0
v -16 -38 0
v -18 -40 0
v -20 -40 0
v -20 -38 0
v -18 -38 0
v -20 -40 0
v -22 -40 0
v -22 -38 0
v -20 -38 0
v -22 -40 0
v -24 -40 0
v -24 -38 0
v -22 -38 0
v -24 -40 0
v -26 -40 0
v -26 -38 0
v -24 -38 0
v -26 -40 0
v -28 -40 0
v -28 -38 0
v -26 -38 0
v -28 -40 0
v -30 -40 0
v -30 -38 0
v -28 -38 0
v -30 -40 0
v -32 -40 0
v -32 -38 0
v -30 -38 0
v -32 -40 0
v -34 -40 0
v -34 -38 0
v -32 -38 0
v -34 -40 0
v -36 -40 0
v -36 -38 0
v -34 -38 0
v -36 -40 0
v -38 -40 0
v -38 -38 0
v -36 -38 0
v -38 -40 0
v -40 -40 0
v -40 -38 0
v -38 -38 0

# Texture cooridinates (Count = 23)
vt 0.03125 0.6875
vt 0.0625 0.6875
vt 0.0625 0.71875
vt 0.03125 0.71875
vt 0.0625 0.75
vt 0.09375 0.75
vt 0.09375 0.78125
vt 0.0625 0.78125
vt 0.125 0.75
vt 0.125 0.78125
vt 0.15625 0.75
vt 0.15625 0.78125
vt 0.09375 0.8125
vt 0.0625 0.8125
vt 0.125 0.8125
vt 0.15625 0.6875
vt 0.1875 0.6875
vt 0.1875 0.71875
vt 0.15625 0.71875
vt 0.09375 0.6875
vt 0.125 0.6875
vt 0.125 0.71875
vt 0.09375 0.71875

# Normal
vn 0 0 -1

# Mesh description
g grave02_mesh_0003

# Faces
f 1/1/1 2/2/1 3/3/1 4/4/1
f 5/5/1 6/6/1 7/7/1 8/8/1
f 9/6/1 10/9/1 11/10/1 12/7/1
f 13/9/1 14/11/1 15/12/1 16/10/1
f 17/8/1 18/7/1 19/13/1 20/14/1
f 21/8/1 22/7/1 23/13/1 24/14/1
f 25/8/1 26/7/1 27/13/1 28/14/1
f 29/8/1 30/7/1 31/13/1 32/14/1
f 33/7/1 34/10/1 35/15/1 36/13/1
f 37/1/1 38/2/1 39/3/1 40/4/1
f 41/8/1 42/7/1 43/13/1 44/14/1
f 45/7/1 46/10/1 47/15/1 48/13/1
f 49/5/1 50/6/1 51/7/1 52/8/1
f 53/5/1 54/6/1 55/7/1 56/8/1
f 57/5/1 58/6/1 59/7/1 60/8/1
f 61/5/1 62/6/1 63/7/1 64/8/1
f 65/6/1 66/9/1 67/10/1 68/7/1
f 69/1/1 70/2/1 71/3/1 72/4/1
f 73/8/1 74/7/1 75/13/1 76/14/1
f 77/7/1 78/10/1 79/15/1 80/13/1
f 81/1/1 82/2/1 83/3/1 84/4/1
f 85/5/1 86/6/1 87/7/1 88/8/1
f 89/6/1 90/9/1 91/10/1 92/7/1
f 93/8/1 94/7/1 95/13/1 96/14/1
f 97/8/1 98/7/1 99/13/1 100/14/1
f 101/7/1 102/10/1 103/15/1 104/13/1
f 105/1/1 106/2/1 107/3/1 108/4/1
f 109/8/1 110/7/1 111/13/1 112/14/1
f 113/7/1 114/10/1 115/15/1 116/13/1
f 117/5/1 118/6/1 119/7/1 120/8/1
f 121/8/1 122/7/1 123/13/1 124/14/1
f 125/8/1 126/7/1 127/13/1 128/14/1
f 129/7/1 130/10/1 131/15/1 132/13/1
f 133/16/1 134/17/1 135/18/1 136/19/1
f 137/8/1 138/7/1 139/13/1 140/14/1
f 141/8/1 142/7/1 143/13/1 144/14/1
f 145/7/1 146/10/1 147/15/1 148/13/1
f 149/7/1 150/10/1 151/15/1 152/13/1
f 153/5/1 154/6/1 155/7/1 156/8/1
f 157/5/1 158/6/1 159/7/1 160/8/1
f 161/5/1 162/6/1 163/7/1 164/8/1
f 165/6/1 166/9/1 167/10/1 168/7/1
f 169/16/1 170/17/1 171/18/1 172/19/1
f 173/5/1 174/6/1 175/7/1 176/8/1
f 177/5/1 178/6/1 179/7/1 180/8/1
f 181/6/1 182/9/1 183/10/1 184/7/1
f 185/6/1 186/9/1 187/10/1 188/7/1
f 189/5/1 190/6/1 191/7/1 192/8/1
f 193/6/1 194/9/1 195/10/1 196/7/1
f 197/7/1 198/10/1 199/15/1 200/13/1
f 201/16/1 202/17/1 203/18/1 204/19/1
f 205/5/1 206/6/1 207/7/1 208/8/1
f 209/6/1 210/9/1 211/10/1 212/7/1
f 213/6/1 214/9/1 215/10/1 216/7/1
f 217/16/1 218/17/1 219/18/1 220/19/1
f 221/5/1 222/6/1 223/7/1 224/8/1
f 225/6/1 226/9/1 227/10/1 228/7/1
f 229/16/1 230/17/1 231/18/1 232/19/1
f 233/8/1 234/7/1 235/13/1 236/14/1
f 237/5/1 238/6/1 239/7/1 240/8/1
f 241/6/1 242/9/1 243/10/1 244/7/1
f 245/16/1 246/17/1 247/18/1 248/19/1
f 249/8/1 250/7/1 251/13/1 252/14/1
f 253/8/1 254/7/1 255/13/1 256/14/1
f 257/5/1 258/6/1 259/7/1 260/8/1
f 261/6/1 262/9/1 263/10/1 264/7/1
f 265/16/1 266/17/1 267/18/1 268/19/1
f 269/5/1 270/6/1 271/7/1 272/8/1
f 273/5/1 274/6/1 275/7/1 276/8/1
f 277/8/1 278/7/1 279/13/1 280/14/1
f 281/8/1 282/7/1 283/13/1 284/14/1
f 285/8/1 286/7/1 287/13/1 288/14/1
f 289/7/1 290/10/1 291/15/1 292/13/1
f 293/5/1 294/6/1 295/7/1 296/8/1
f 297/6/1 298/9/1 299/10/1 300/7/1
f 301/16/1 302/17/1 303/18/1 304/19/1
f 305/8/1 306/7/1 307/13/1 308/14/1
f 309/7/1 310/10/1 311/15/1 312/13/1
f 313/7/1 314/10/1 315/15/1 316/13/1
f 317/7/1 318/10/1 319/15/1 320/13/1
f 321/7/1 322/10/1 323/15/1 324/13/1
f 325/7/1 326/10/1 327/15/1 328/13/1
f 329/7/1 330/10/1 331/15/1 332/13/1
f 333/8/1 334/7/1 335/13/1 336/14/1
f 337/5/1 338/6/1 339/7/1 340/8/1
f 341/6/1 342/9/1 343/10/1 344/7/1
f 345/16/1 346/17/1 347/18/1 348/19/1
f 349/8/1 350/7/1 351/13/1 352/14/1
f 353/7/1 354/10/1 355/15/1 356/13/1
f 357/6/1 358/9/1 359/10/1 360/7/1
f 361/6/1 362/9/1 363/10/1 364/7/1
f 365/6/1 366/9/1 367/10/1 368/7/1
f 369/6/1 370/9/1 371/10/1 372/7/1
f 373/6/1 374/9/1 375/10/1 376/7/1
f 377/7/1 378/10/1 379/15/1 380/13/1
f 381/7/1 382/10/1 383/15/1 384/13/1
f 385/5/1 386/6/1 387/7/1 388/8/1
f 389/6/1 390/9/1 391/10/1 392/7/1
f 393/16/1 394/17/1 395/18/1 396/19/1
f 397/8/1 398/7/1 399/13/1 400/14/1
f 401/8/1 402/7/1 403/13/1 404/14/1
f 405/8/1 406/7/1 407/13/1 408/14/1
f 409/7/1 410/10/1 411/15/1 412/13/1
f 413/5/1 414/6/1 415/7/1 416/8/1
f 417/5/1 418/6/1 419/7/1 420/8/1
f 421/6/1 422/9/1 423/10/1 424/7/1
f 425/6/1 426/9/1 427/10/1 428/7/1
f 429/6/1 430/9/1 431/10/1 432/7/1
f 433/8/1 434/7/1 435/13/1 436/14/1
f 437/6/1 438/9/1 439/10/1 440/7/1
f 441/16/1 442/17/1 443/18/1 444/19/1
f 445/8/1 446/7/1 447/13/1 448/14/1
f 449/7/1 450/10/1 451/15/1 452/13/1
f 453/7/1 454/10/1 455/15/1 456/13/1
f 457/8/1 458/7/1 459/13/1 460/14/1
f 461/7/1 462/10/1 463/15/1 464/13/1
f 465/5/1 466/6/1 467/7/1 468/8/1
f 469/8/1 470/7/1 471/13/1 472/14/1
f 473/5/1 474/6/1 475/7/1 476/8/1
f 477/6/1 478/9/1 479/10/1 480/7/1
f 481/16/1 482/17/1 483/18/1 484/19/1
f 485/8/1 486/7/1 487/13/1 488/14/1
f 489/8/1 490/7/1 491/13/1 492/14/1
f 493/8/1 494/7/1 495/13/1 496/14/1
f 497/8/1 498/7/1 499/13/1 500/14/1
f 501/8/1 502/7/1 503/13/1 504/14/1
f 505/8/1 506/7/1 507/13/1 508/14/1
f 509/5/1 510/6/1 511/7/1 512/8/1
f 513/16/1 514/17/1 515/18/1 516/19/1
f 517/5/1 518/6/1 519/7/1 520/8/1
f 521/16/1 522/17/1 523/18/1 524/19/1
f 525/7/1 526/10/1 527/15/1 528/13/1
f 529/7/1 530/10/1 531/15/1 532/13/1
f 533/7/1 534/10/1 535/15/1 536/13/1
f 537/7/1 538/10/1 539/15/1 540/13/1
f 541/7/1 542/10/1 543/15/1 544/13/1
f 545/1/1 546/2/1 547/3/1 548/4/1
f 549/20/1 550/21/1 551/22/1 552/23/1
f 553/20/1 554/21/1 555/22/1 556/23/1
f 557/20/1 558/21/1 559/22/1 560/23/1
f 561/20/1 562/21/1 563/22/1 564/23/1
f 565/2/1 566/20/1 567/23/1 568/3/1
f 569/2/1 570/20/1 571/23/1 572/3/1
f 573/2/1 574/20/1 575/23/1 576/3/1
f 577/2/1 578/20/1 579/23/1 580/3/1
f 581/2/1 582/20/1 583/23/1 584/3/1
f 585/2/1 586/20/1 587/23/1 588/3/1
f 589/2/1 590/20/1 591/23/1 592/3/1
f 593/2/1 594/20/1 595/23/1 596/3/1
f 597/2/1 598/20/1 599/23/1 600/3/1
f 601/2/1 602/20/1 603/23/1 604/3/1
f 605/2/1 606/20/1 607/23/1 608/3/1
f 609/2/1 610/20/1 611/23/1 612/3/1
f 613/2/1 614/20/1 615/23/1 616/3/1
f 617/2/1 618/20/1 619/23/1 620/3/1
f 621/20/1 622/21/1 623/22/1 624/23/1

