# Tiled2Unity generated file. Do not modify by hand.
# Wavefront file for 'grave02_mesh_0004.obj'

# Vertices (Count = 252)
v -6 -6 0
v -8 -6 0
v -8 -4 0
v -6 -4 0
v -8 -6 0
v -10 -6 0
v -10 -4 0
v -8 -4 0
v -10 -6 0
v -12 -6 0
v -12 -4 0
v -10 -4 0
v -12 -6 0
v -14 -6 0
v -14 -4 0
v -12 -4 0
v -14 -6 0
v -16 -6 0
v -16 -4 0
v -14 -4 0
v -16 -6 0
v -18 -6 0
v -18 -4 0
v -16 -4 0
v -18 -6 0
v -20 -6 0
v -20 -4 0
v -18 -4 0
v -20 -6 0
v -22 -6 0
v -22 -4 0
v -20 -4 0
v -22 -6 0
v -24 -6 0
v -24 -4 0
v -22 -4 0
v -24 -6 0
v -26 -6 0
v -26 -4 0
v -24 -4 0
v -26 -6 0
v -28 -6 0
v -28 -4 0
v -26 -4 0
v -28 -6 0
v -30 -6 0
v -30 -4 0
v -28 -4 0
v -6 -8 0
v -8 -8 0
v -8 -6 0
v -6 -6 0
v -28 -8 0
v -30 -8 0
v -30 -6 0
v -28 -6 0
v -6 -10 0
v -8 -10 0
v -8 -8 0
v -6 -8 0
v -28 -10 0
v -30 -10 0
v -30 -8 0
v -28 -8 0
v -6 -12 0
v -8 -12 0
v -8 -10 0
v -6 -10 0
v -28 -12 0
v -30 -12 0
v -30 -10 0
v -28 -10 0
v -6 -14 0
v -8 -14 0
v -8 -12 0
v -6 -12 0
v -28 -14 0
v -30 -14 0
v -30 -12 0
v -28 -12 0
v -6 -16 0
v -8 -16 0
v -8 -14 0
v -6 -14 0
v -28 -16 0
v -30 -16 0
v -30 -14 0
v -28 -14 0
v -6 -18 0
v -8 -18 0
v -8 -16 0
v -6 -16 0
v -26 -18 0
v -28 -18 0
v -28 -16 0
v -26 -16 0
v -28 -18 0
v -30 -18 0
v -30 -16 0
v -28 -16 0
v -6 -20 0
v -8 -20 0
v -8 -18 0
v -6 -18 0
v -8 -20 0
v -10 -20 0
v -10 -18 0
v -8 -18 0
v -10 -20 0
v -12 -20 0
v -12 -18 0
v -10 -18 0
v -12 -20 0
v -14 -20 0
v -14 -18 0
v -12 -18 0
v -14 -20 0
v -16 -20 0
v -16 -18 0
v -14 -18 0
v -16 -20 0
v -18 -20 0
v -18 -18 0
v -16 -18 0
v -18 -20 0
v -20 -20 0
v -20 -18 0
v -18 -18 0
v -20 -20 0
v -22 -20 0
v -22 -18 0
v -20 -18 0
v -22 -20 0
v -24 -20 0
v -24 -18 0
v -22 -18 0
v -24 -20 0
v -26 -20 0
v -26 -18 0
v -24 -18 0
v -26 -20 0
v -28 -20 0
v -28 -18 0
v -26 -18 0
v -28 -20 0
v -30 -20 0
v -30 -18 0
v -28 -18 0
v -6 -22 0
v -8 -22 0
v -8 -20 0
v -6 -20 0
v -28 -22 0
v -30 -22 0
v -30 -20 0
v -28 -20 0
v -6 -24 0
v -8 -24 0
v -8 -22 0
v -6 -22 0
v -28 -24 0
v -30 -24 0
v -30 -22 0
v -28 -22 0
v -6 -26 0
v -8 -26 0
v -8 -24 0
v -6 -24 0
v -28 -26 0
v -30 -26 0
v -30 -24 0
v -28 -24 0
v -28 -28 0
v -30 -28 0
v -30 -26 0
v -28 -26 0
v -28 -30 0
v -30 -30 0
v -30 -28 0
v -28 -28 0
v -6 -32 0
v -8 -32 0
v -8 -30 0
v -6 -30 0
v -28 -32 0
v -30 -32 0
v -30 -30 0
v -28 -30 0
v -6 -34 0
v -8 -34 0
v -8 -32 0
v -6 -32 0
v -28 -34 0
v -30 -34 0
v -30 -32 0
v -28 -32 0
v -6 -36 0
v -8 -36 0
v -8 -34 0
v -6 -34 0
v -28 -36 0
v -30 -36 0
v -30 -34 0
v -28 -34 0
v -6 -38 0
v -8 -38 0
v -8 -36 0
v -6 -36 0
v -8 -38 0
v -10 -38 0
v -10 -36 0
v -8 -36 0
v -10 -38 0
v -12 -38 0
v -12 -36 0
v -10 -36 0
v -12 -38 0
v -14 -38 0
v -14 -36 0
v -12 -36 0
v -14 -38 0
v -16 -38 0
v -16 -36 0
v -14 -36 0
v -16 -38 0
v -18 -38 0
v -18 -36 0
v -16 -36 0
v -18 -38 0
v -20 -38 0
v -20 -36 0
v -18 -36 0
v -20 -38 0
v -22 -38 0
v -22 -36 0
v -20 -36 0
v -22 -38 0
v -24 -38 0
v -24 -36 0
v -22 -36 0
v -24 -38 0
v -26 -38 0
v -26 -36 0
v -24 -36 0
v -26 -38 0
v -28 -38 0
v -28 -36 0
v -26 -36 0
v -28 -38 0
v -30 -38 0
v -30 -36 0
v -28 -36 0

# Texture cooridinates (Count = 20)
vt 0 0.90625
vt 0.03125 0.90625
vt 0.03125 0.9375
vt 0 0.9375
vt 0.0625 0.90625
vt 0.0625 0.9375
vt 0.09375 0.90625
vt 0.09375 0.9375
vt 0 0.875
vt 0.03125 0.875
vt 0.0625 0.875
vt 0.09375 0.875
vt 0 0.96875
vt 0.03125 0.96875
vt 0.03125 1
vt 0 1
vt 0 0.84375
vt 0.03125 0.84375
vt 0.0625 0.84375
vt 0.09375 0.84375

# Normal
vn 0 0 -1

# Mesh description
g grave02_mesh_0004

# Faces
f 1/1/1 2/2/1 3/3/1 4/4/1
f 5/2/1 6/5/1 7/6/1 8/3/1
f 9/2/1 10/5/1 11/6/1 12/3/1
f 13/2/1 14/5/1 15/6/1 16/3/1
f 17/2/1 18/5/1 19/6/1 20/3/1
f 21/2/1 22/5/1 23/6/1 24/3/1
f 25/2/1 26/5/1 27/6/1 28/3/1
f 29/2/1 30/5/1 31/6/1 32/3/1
f 33/2/1 34/5/1 35/6/1 36/3/1
f 37/2/1 38/5/1 39/6/1 40/3/1
f 41/2/1 42/5/1 43/6/1 44/3/1
f 45/5/1 46/7/1 47/8/1 48/6/1
f 49/9/1 50/10/1 51/2/1 52/1/1
f 53/11/1 54/12/1 55/7/1 56/5/1
f 57/9/1 58/10/1 59/2/1 60/1/1
f 61/11/1 62/12/1 63/7/1 64/5/1
f 65/9/1 66/10/1 67/2/1 68/1/1
f 69/11/1 70/12/1 71/7/1 72/5/1
f 73/9/1 74/10/1 75/2/1 76/1/1
f 77/11/1 78/12/1 79/7/1 80/5/1
f 81/9/1 82/10/1 83/2/1 84/1/1
f 85/11/1 86/12/1 87/7/1 88/5/1
f 89/9/1 90/10/1 91/2/1 92/1/1
f 93/13/1 94/14/1 95/15/1 96/16/1
f 97/11/1 98/12/1 99/7/1 100/5/1
f 101/17/1 102/18/1 103/10/1 104/9/1
f 105/18/1 106/19/1 107/11/1 108/10/1
f 109/18/1 110/19/1 111/11/1 112/10/1
f 113/18/1 114/19/1 115/11/1 116/10/1
f 117/18/1 118/19/1 119/11/1 120/10/1
f 121/18/1 122/19/1 123/11/1 124/10/1
f 125/18/1 126/19/1 127/11/1 128/10/1
f 129/18/1 130/19/1 131/11/1 132/10/1
f 133/18/1 134/19/1 135/11/1 136/10/1
f 137/18/1 138/19/1 139/11/1 140/10/1
f 141/4/1 142/3/1 143/14/1 144/13/1
f 145/19/1 146/20/1 147/12/1 148/11/1
f 149/1/1 150/2/1 151/3/1 152/4/1
f 153/5/1 154/7/1 155/8/1 156/6/1
f 157/9/1 158/10/1 159/2/1 160/1/1
f 161/11/1 162/12/1 163/7/1 164/5/1
f 165/9/1 166/10/1 167/2/1 168/1/1
f 169/11/1 170/12/1 171/7/1 172/5/1
f 173/11/1 174/12/1 175/7/1 176/5/1
f 177/11/1 178/12/1 179/7/1 180/5/1
f 181/9/1 182/10/1 183/2/1 184/1/1
f 185/11/1 186/12/1 187/7/1 188/5/1
f 189/9/1 190/10/1 191/2/1 192/1/1
f 193/11/1 194/12/1 195/7/1 196/5/1
f 197/9/1 198/10/1 199/2/1 200/1/1
f 201/11/1 202/12/1 203/7/1 204/5/1
f 205/17/1 206/18/1 207/10/1 208/9/1
f 209/18/1 210/19/1 211/11/1 212/10/1
f 213/18/1 214/19/1 215/11/1 216/10/1
f 217/18/1 218/19/1 219/11/1 220/10/1
f 221/18/1 222/19/1 223/11/1 224/10/1
f 225/18/1 226/19/1 227/11/1 228/10/1
f 229/18/1 230/19/1 231/11/1 232/10/1
f 233/18/1 234/19/1 235/11/1 236/10/1
f 237/18/1 238/19/1 239/11/1 240/10/1
f 241/18/1 242/19/1 243/11/1 244/10/1
f 245/18/1 246/19/1 247/11/1 248/10/1
f 249/19/1 250/20/1 251/12/1 252/11/1

