# Tiled2Unity generated file. Do not modify by hand.
# Wavefront file for 'grave02_mesh_0008.obj'

# Vertices (Count = 84)
v -22 -4 0
v -24 -4 0
v -24 -2 0
v -22 -2 0
v -24 -4 0
v -26 -4 0
v -26 -2 0
v -24 -2 0
v -26 -4 0
v -28 -4 0
v -28 -2 0
v -26 -2 0
v -8 -6 0
v -10 -6 0
v -10 -4 0
v -8 -4 0
v -10 -6 0
v -12 -6 0
v -12 -4 0
v -10 -4 0
v -16 -6 0
v -18 -6 0
v -18 -4 0
v -16 -4 0
v -18 -6 0
v -20 -6 0
v -20 -4 0
v -18 -4 0
v -22 -6 0
v -24 -6 0
v -24 -4 0
v -22 -4 0
v -24 -6 0
v -26 -6 0
v -26 -4 0
v -24 -4 0
v -26 -6 0
v -28 -6 0
v -28 -4 0
v -26 -4 0
v -8 -8 0
v -10 -8 0
v -10 -6 0
v -8 -6 0
v -10 -8 0
v -12 -8 0
v -12 -6 0
v -10 -6 0
v -16 -8 0
v -18 -8 0
v -18 -6 0
v -16 -6 0
v -18 -8 0
v -20 -8 0
v -20 -6 0
v -18 -6 0
v -22 -8 0
v -24 -8 0
v -24 -6 0
v -22 -6 0
v -24 -8 0
v -26 -8 0
v -26 -6 0
v -24 -6 0
v -26 -8 0
v -28 -8 0
v -28 -6 0
v -26 -6 0
v -8 -10 0
v -10 -10 0
v -10 -8 0
v -8 -8 0
v -10 -10 0
v -12 -10 0
v -12 -8 0
v -10 -8 0
v -16 -10 0
v -18 -10 0
v -18 -8 0
v -16 -8 0
v -18 -10 0
v -20 -10 0
v -20 -8 0
v -18 -8 0

# Texture cooridinates (Count = 28)
vt 0.46875 0.84375
vt 0.5 0.84375
vt 0.5 0.875
vt 0.46875 0.875
vt 0.375 0.0625
vt 0.40625 0.0625
vt 0.40625 0.09375
vt 0.375 0.09375
vt 0.4375 0.0625
vt 0.4375 0.09375
vt 0.3125 0.0625
vt 0.34375 0.0625
vt 0.34375 0.09375
vt 0.3125 0.09375
vt 0.46875 0.8125
vt 0.5 0.8125
vt 0.375 0.03125
vt 0.40625 0.03125
vt 0.4375 0.03125
vt 0.3125 0.03125
vt 0.34375 0.03125
vt 0.46875 0.78125
vt 0.5 0.78125
vt 0.375 0
vt 0.40625 0
vt 0.4375 0
vt 0.3125 0
vt 0.34375 0

# Normal
vn 0 0 -1

# Mesh description
g grave02_mesh_0008

# Faces
f 1/1/1 2/2/1 3/3/1 4/4/1
f 5/1/1 6/2/1 7/3/1 8/4/1
f 9/1/1 10/2/1 11/3/1 12/4/1
f 13/5/1 14/6/1 15/7/1 16/8/1
f 17/6/1 18/9/1 19/10/1 20/7/1
f 21/11/1 22/12/1 23/13/1 24/14/1
f 25/12/1 26/5/1 27/8/1 28/13/1
f 29/15/1 30/16/1 31/2/1 32/1/1
f 33/15/1 34/16/1 35/2/1 36/1/1
f 37/15/1 38/16/1 39/2/1 40/1/1
f 41/17/1 42/18/1 43/6/1 44/5/1
f 45/18/1 46/19/1 47/9/1 48/6/1
f 49/20/1 50/21/1 51/12/1 52/11/1
f 53/21/1 54/17/1 55/5/1 56/12/1
f 57/22/1 58/23/1 59/16/1 60/15/1
f 61/22/1 62/23/1 63/16/1 64/15/1
f 65/22/1 66/23/1 67/16/1 68/15/1
f 69/24/1 70/25/1 71/18/1 72/17/1
f 73/25/1 74/26/1 75/19/1 76/18/1
f 77/27/1 78/28/1 79/21/1 80/20/1
f 81/28/1 82/24/1 83/17/1 84/21/1

