# Tiled2Unity generated file. Do not modify by hand.
# Wavefront file for 'grave00_mesh_0007.obj'

# Vertices (Count = 36)
v -10 -6 0
v -12 -6 0
v -12 -4 0
v -10 -4 0
v -12 -6 0
v -14 -6 0
v -14 -4 0
v -12 -4 0
v -10 -8 0
v -12 -8 0
v -12 -6 0
v -10 -6 0
v -12 -8 0
v -14 -8 0
v -14 -6 0
v -12 -6 0
v -30 -34 0
v -32 -34 0
v -32 -32 0
v -30 -32 0
v -32 -34 0
v -34 -34 0
v -34 -32 0
v -32 -32 0
v -34 -34 0
v -36 -34 0
v -36 -32 0
v -34 -32 0
v -30 -36 0
v -32 -36 0
v -32 -34 0
v -30 -34 0
v -32 -36 0
v -34 -36 0
v -34 -34 0
v -32 -34 0

# Texture cooridinates (Count = 18)
vt 0.09375 0.5625
vt 0.125 0.5625
vt 0.125 0.59375
vt 0.09375 0.59375
vt 0.15625 0.5625
vt 0.15625 0.59375
vt 0.09375 0.53125
vt 0.125 0.53125
vt 0.15625 0.53125
vt 0 0.5625
vt 0.03125 0.5625
vt 0.03125 0.59375
vt 0 0.59375
vt 0.0625 0.5625
vt 0.0625 0.59375
vt 0 0.53125
vt 0.03125 0.53125
vt 0.0625 0.53125

# Normal
vn 0 0 -1

# Mesh description
g grave00_mesh_0007

# Faces
f 1/1/1 2/2/1 3/3/1 4/4/1
f 5/2/1 6/5/1 7/6/1 8/3/1
f 9/7/1 10/8/1 11/2/1 12/1/1
f 13/8/1 14/9/1 15/5/1 16/2/1
f 17/10/1 18/11/1 19/12/1 20/13/1
f 21/11/1 22/14/1 23/15/1 24/12/1
f 25/14/1 26/1/1 27/4/1 28/15/1
f 29/16/1 30/17/1 31/11/1 32/10/1
f 33/17/1 34/18/1 35/14/1 36/11/1

