# Tiled2Unity generated file. Do not modify by hand.
# Wavefront file for 'grave00_mesh_0005.obj'

# Vertices (Count = 56)
v -2 -2 0
v -4 -2 0
v -4 0 0
v -2 0 0
v -30 -2 0
v -32 -2 0
v -32 0 0
v -30 0 0
v -2 -4 0
v -4 -4 0
v -4 -2 0
v -2 -2 0
v -8 -4 0
v -10 -4 0
v -10 -2 0
v -8 -2 0
v -10 -4 0
v -12 -4 0
v -12 -2 0
v -10 -2 0
v -12 -4 0
v -14 -4 0
v -14 -2 0
v -12 -2 0
v -14 -4 0
v -16 -4 0
v -16 -2 0
v -14 -2 0
v -16 -4 0
v -18 -4 0
v -18 -2 0
v -16 -2 0
v -18 -4 0
v -20 -4 0
v -20 -2 0
v -18 -2 0
v -20 -4 0
v -22 -4 0
v -22 -2 0
v -20 -2 0
v -22 -4 0
v -24 -4 0
v -24 -2 0
v -22 -2 0
v -30 -4 0
v -32 -4 0
v -32 -2 0
v -30 -2 0
v -8 -38 0
v -10 -38 0
v -10 -36 0
v -8 -36 0
v -10 -38 0
v -12 -38 0
v -12 -36 0
v -10 -36 0

# Texture cooridinates (Count = 10)
vt 0.90625 0.28125
vt 0.9375 0.28125
vt 0.9375 0.3125
vt 0.90625 0.3125
vt 0.90625 0.25
vt 0.9375 0.25
vt 0.03125 0.875
vt 0.0625 0.875
vt 0.0625 0.90625
vt 0.03125 0.90625

# Normal
vn 0 0 -1

# Mesh description
g grave00_mesh_0005

# Faces
f 1/1/1 2/2/1 3/3/1 4/4/1
f 5/1/1 6/2/1 7/3/1 8/4/1
f 9/5/1 10/6/1 11/2/1 12/1/1
f 13/7/1 14/8/1 15/9/1 16/10/1
f 17/7/1 18/8/1 19/9/1 20/10/1
f 21/7/1 22/8/1 23/9/1 24/10/1
f 25/7/1 26/8/1 27/9/1 28/10/1
f 29/7/1 30/8/1 31/9/1 32/10/1
f 33/7/1 34/8/1 35/9/1 36/10/1
f 37/7/1 38/8/1 39/9/1 40/10/1
f 41/7/1 42/8/1 43/9/1 44/10/1
f 45/5/1 46/6/1 47/2/1 48/1/1
f 49/7/1 50/8/1 51/9/1 52/10/1
f 53/7/1 54/8/1 55/9/1 56/10/1

