# Tiled2Unity generated file. Do not modify by hand.
# Wavefront file for 'Inn_mesh_0002.obj'

# Vertices (Count = 16)
v -3.84 -0.64 0
v -4.16 -0.64 0
v -4.16 -0.32 0
v -3.84 -0.32 0
v -3.52 -0.64 0
v -3.84 -0.64 0
v -3.84 -0.32 0
v -3.52 -0.32 0
v -3.84 -0.96 0
v -4.16 -0.96 0
v -4.16 -0.64 0
v -3.84 -0.64 0
v -3.52 -0.96 0
v -3.84 -0.96 0
v -3.84 -0.64 0
v -3.52 -0.64 0

# Texture cooridinates (Count = 9)
vt 0.5 0.6483517
vt 1 0.6483517
vt 1 1
vt 0.5 1
vt 0 0.6483517
vt 0 1
vt 0.5 0.2967033
vt 1 0.2967033
vt 0 0.2967033

# Normal
vn 0 0 -1

# Mesh description
g Inn_mesh_0002

# Faces
f 1/1/1 2/2/1 3/3/1 4/4/1
f 5/5/1 6/1/1 7/4/1 8/6/1
f 9/7/1 10/8/1 11/2/1 12/1/1
f 13/9/1 14/7/1 15/1/1 16/5/1

